<?xml version="1.0" encoding="UTF-8" standalone="no"?>
<!-- Created with Inkscape (http://www.inkscape.org/) -->

<svg
   xmlns:dc="http://purl.org/dc/elements/1.1/"
   xmlns:cc="http://creativecommons.org/ns#"
   xmlns:rdf="http://www.w3.org/1999/02/22-rdf-syntax-ns#"
   xmlns:svg="http://www.w3.org/2000/svg"
   xmlns="http://www.w3.org/2000/svg"
   xmlns:xlink="http://www.w3.org/1999/xlink"
   xmlns:sodipodi="http://sodipodi.sourceforge.net/DTD/sodipodi-0.dtd"
   xmlns:inkscape="http://www.inkscape.org/namespaces/inkscape"
   width="744.09448819"
   height="1052.3622047"
   id="svg3742"
   version="1.1"
   inkscape:version="0.48.2 r9819"
   sodipodi:docname="New document 3">
  <defs
     id="defs3744">
    <linearGradient
       id="linearGradient5149"
       inkscape:collect="always">
      <stop
         id="stop5151"
         offset="0"
         style="stop-color:#4e00d6;stop-opacity:1" />
      <stop
         id="stop5153"
         offset="1"
         style="stop-color:#2400d4;stop-opacity:1" />
    </linearGradient>
    <linearGradient
       inkscape:collect="always"
       id="linearGradient4428-0-3">
      <stop
         style="stop-color:#999999;stop-opacity:1"
         offset="0"
         id="stop4430-7-5" />
      <stop
         style="stop-color:#1a1a1a;stop-opacity:1"
         offset="1"
         id="stop4432-2-0" />
    </linearGradient>
    <linearGradient
       inkscape:collect="always"
       id="linearGradient3974">
      <stop
         style="stop-color:#edff33;stop-opacity:1"
         offset="0"
         id="stop3976" />
      <stop
         style="stop-color:#00a514;stop-opacity:1"
         offset="1"
         id="stop3978" />
    </linearGradient>
    <linearGradient
       inkscape:collect="always"
       id="linearGradient3974-7-8">
      <stop
         style="stop-color:#edff33;stop-opacity:1"
         offset="0"
         id="stop3976-4-8" />
      <stop
         style="stop-color:#00a514;stop-opacity:1"
         offset="1"
         id="stop3978-0-2" />
    </linearGradient>
    <linearGradient
       inkscape:collect="always"
       id="linearGradient3974-7">
      <stop
         style="stop-color:#edff33;stop-opacity:1"
         offset="0"
         id="stop3976-4" />
      <stop
         style="stop-color:#00a514;stop-opacity:1"
         offset="1"
         id="stop3978-0" />
    </linearGradient>
    <linearGradient
       inkscape:collect="always"
       id="linearGradient3980">
      <stop
         style="stop-color:#2f7b00;stop-opacity:1"
         offset="0"
         id="stop3982" />
      <stop
         style="stop-color:#009d13;stop-opacity:1"
         offset="1"
         id="stop3984" />
    </linearGradient>
    <linearGradient
       id="linearGradient3986"
       inkscape:collect="always">
      <stop
         id="stop3988"
         offset="0"
         style="stop-color:#084c0e;stop-opacity:1" />
      <stop
         id="stop3990"
         offset="1"
         style="stop-color:#4c0808;stop-opacity:0;" />
    </linearGradient>
    <linearGradient
       inkscape:collect="always"
       id="linearGradient4428-0">
      <stop
         style="stop-color:#999999;stop-opacity:1"
         offset="0"
         id="stop4430-7" />
      <stop
         style="stop-color:#1a1a1a;stop-opacity:1"
         offset="1"
         id="stop4432-2" />
    </linearGradient>
    <linearGradient
       inkscape:collect="always"
       id="linearGradient4984-0-1">
      <stop
         style="stop-color:#33f9ff;stop-opacity:1"
         offset="0"
         id="stop4986-4-9" />
      <stop
         style="stop-color:#0000ff;stop-opacity:1"
         offset="1"
         id="stop4988-9-9" />
    </linearGradient>
    <linearGradient
       inkscape:collect="always"
       id="linearGradient4984-0">
      <stop
         style="stop-color:#33f9ff;stop-opacity:1"
         offset="0"
         id="stop4986-4" />
      <stop
         style="stop-color:#0000ff;stop-opacity:1"
         offset="1"
         id="stop4988-9" />
    </linearGradient>
    <linearGradient
       inkscape:collect="always"
       id="linearGradient4984">
      <stop
         style="stop-color:#33f9ff;stop-opacity:1"
         offset="0"
         id="stop4986" />
      <stop
         style="stop-color:#0000ff;stop-opacity:1"
         offset="1"
         id="stop4988" />
    </linearGradient>
    <linearGradient
       id="linearGradient4990"
       inkscape:collect="always">
      <stop
         id="stop4992"
         offset="0"
         style="stop-color:#000338;stop-opacity:1" />
      <stop
         id="stop4994"
         offset="1"
         style="stop-color:#4c0808;stop-opacity:0;" />
    </linearGradient>
    <linearGradient
       inkscape:collect="always"
       xlink:href="#linearGradient4428-7"
       id="linearGradient4701"
       gradientUnits="userSpaceOnUse"
       x1="553.26495"
       y1="715.49017"
       x2="558.23993"
       y2="1102.5426" />
    <linearGradient
       inkscape:collect="always"
       id="linearGradient4428-7">
      <stop
         style="stop-color:#999999;stop-opacity:1"
         offset="0"
         id="stop4430-5" />
      <stop
         style="stop-color:#1a1a1a;stop-opacity:1"
         offset="1"
         id="stop4432-7" />
    </linearGradient>
    <linearGradient
       inkscape:collect="always"
       xlink:href="#linearGradient4472-6"
       id="linearGradient4703"
       gradientUnits="userSpaceOnUse"
       gradientTransform="translate(510.84645,366.71684)"
       x1="415.98639"
       y1="552.34839"
       x2="411.33044"
       y2="294.93735" />
    <linearGradient
       inkscape:collect="always"
       id="linearGradient4472-6">
      <stop
         style="stop-color:#4c2f08;stop-opacity:1"
         offset="0"
         id="stop4474-7" />
      <stop
         style="stop-color:#4c0808;stop-opacity:0;"
         offset="1"
         id="stop4476-8" />
    </linearGradient>
    <linearGradient
       inkscape:collect="always"
       id="linearGradient4428">
      <stop
         style="stop-color:#999999;stop-opacity:1"
         offset="0"
         id="stop4430" />
      <stop
         style="stop-color:#1a1a1a;stop-opacity:1"
         offset="1"
         id="stop4432" />
    </linearGradient>
    <linearGradient
       id="linearGradient4189"
       inkscape:collect="always">
      <stop
         id="stop4191"
         offset="0"
         style="stop-color:#ff6633;stop-opacity:1" />
      <stop
         id="stop4193"
         offset="1"
         style="stop-color:#ff0000;stop-opacity:1" />
    </linearGradient>
    <linearGradient
       id="linearGradient4189-8-6"
       inkscape:collect="always">
      <stop
         id="stop4191-6-2"
         offset="0"
         style="stop-color:#ff6633;stop-opacity:1" />
      <stop
         id="stop4193-9-3"
         offset="1"
         style="stop-color:#ff0000;stop-opacity:1" />
    </linearGradient>
    <linearGradient
       id="linearGradient4189-8"
       inkscape:collect="always">
      <stop
         id="stop4191-6"
         offset="0"
         style="stop-color:#ff6633;stop-opacity:1" />
      <stop
         id="stop4193-9"
         offset="1"
         style="stop-color:#ff0000;stop-opacity:1" />
    </linearGradient>
    <linearGradient
       id="linearGradient4124"
       inkscape:collect="always">
      <stop
         id="stop4126"
         offset="0"
         style="stop-color:#800000;stop-opacity:1" />
      <stop
         id="stop4128"
         offset="1"
         style="stop-color:#d40000;stop-opacity:1" />
    </linearGradient>
    <linearGradient
       inkscape:collect="always"
       id="linearGradient4472">
      <stop
         style="stop-color:#4c0808;stop-opacity:1;"
         offset="0"
         id="stop4474" />
      <stop
         style="stop-color:#4c0808;stop-opacity:0;"
         offset="1"
         id="stop4476" />
    </linearGradient>
    <linearGradient
       inkscape:collect="always"
       id="linearGradient4428-0-3-7">
      <stop
         style="stop-color:#999999;stop-opacity:1"
         offset="0"
         id="stop4430-7-5-4" />
      <stop
         style="stop-color:#1a1a1a;stop-opacity:1"
         offset="1"
         id="stop4432-2-0-0" />
    </linearGradient>
    <radialGradient
       inkscape:collect="always"
       xlink:href="#linearGradient3974-4"
       id="radialGradient4091-9"
       gradientUnits="userSpaceOnUse"
       gradientTransform="matrix(-0.95356693,-0.5950151,0.63345673,-1.0151732,-38.128718,1247.8317)"
       cx="-238.57777"
       cy="534.86475"
       fx="-238.57777"
       fy="534.86475"
       r="106.82169" />
    <linearGradient
       id="linearGradient3974-4">
      <stop
         style="stop-color:#f2f2f2;stop-opacity:1;"
         offset="0"
         id="stop3976-8" />
      <stop
         style="stop-color:#999999;stop-opacity:1;"
         offset="1"
         id="stop3978-8" />
    </linearGradient>
    <radialGradient
       inkscape:collect="always"
       xlink:href="#linearGradient3974-7-8-4"
       id="radialGradient4093-2"
       gradientUnits="userSpaceOnUse"
       gradientTransform="matrix(0.99208162,-0.52830562,0.56243739,1.0561762,470.44004,157.652)"
       cx="-238.57777"
       cy="534.86475"
       fx="-238.57777"
       fy="534.86475"
       r="106.82169" />
    <linearGradient
       inkscape:collect="always"
       id="linearGradient3974-7-8-4">
      <stop
         style="stop-color:#edff33;stop-opacity:1"
         offset="0"
         id="stop3976-4-8-5" />
      <stop
         style="stop-color:#00a514;stop-opacity:1"
         offset="1"
         id="stop3978-0-2-5" />
    </linearGradient>
    <radialGradient
       inkscape:collect="always"
       xlink:href="#linearGradient3974-7-7"
       id="radialGradient4095-1"
       gradientUnits="userSpaceOnUse"
       gradientTransform="matrix(-0.03851472,1.1233207,-1.1958941,-0.04100302,1160.4831,1145.7882)"
       cx="-238.57777"
       cy="534.86475"
       fx="-238.57777"
       fy="534.86475"
       r="106.82169" />
    <linearGradient
       inkscape:collect="always"
       id="linearGradient3974-7-7">
      <stop
         style="stop-color:#edff33;stop-opacity:1"
         offset="0"
         id="stop3976-4-1" />
      <stop
         style="stop-color:#00a514;stop-opacity:1"
         offset="1"
         id="stop3978-0-1" />
    </linearGradient>
    <linearGradient
       inkscape:collect="always"
       xlink:href="#linearGradient3980-2"
       id="linearGradient4097-5"
       gradientUnits="userSpaceOnUse"
       gradientTransform="matrix(0.56167845,0,0,0.56966258,659.51271,463.5108)"
       x1="-228.97643"
       y1="767.25244"
       x2="-229.28537"
       y2="458.36371" />
    <linearGradient
       id="linearGradient3980-2">
      <stop
         style="stop-color:#3e3e3e;stop-opacity:1;"
         offset="0"
         id="stop3982-7" />
      <stop
         style="stop-color:#b6b6b6;stop-opacity:1;"
         offset="1"
         id="stop3984-6" />
    </linearGradient>
    <linearGradient
       inkscape:collect="always"
       xlink:href="#linearGradient3986-4"
       id="linearGradient4099-1"
       gradientUnits="userSpaceOnUse"
       gradientTransform="matrix(0.53358103,0,0,0.53358103,310.17434,559.06091)"
       x1="415.98639"
       y1="552.34839"
       x2="411.33044"
       y2="294.93735" />
    <linearGradient
       id="linearGradient3986-4">
      <stop
         id="stop3988-2"
         offset="0"
         style="stop-color:#2a2a2a;stop-opacity:1;" />
      <stop
         id="stop3990-3"
         offset="1"
         style="stop-color:#4c0808;stop-opacity:0;" />
    </linearGradient>
    <radialGradient
       inkscape:collect="always"
       xlink:href="#linearGradient3974-4"
       id="radialGradient4123"
       gradientUnits="userSpaceOnUse"
       gradientTransform="matrix(-0.95356693,-0.5950151,0.63345673,-1.0151732,-38.128718,1247.8317)"
       cx="-238.57777"
       cy="534.86475"
       fx="-238.57777"
       fy="534.86475"
       r="106.82169" />
    <radialGradient
       inkscape:collect="always"
       xlink:href="#linearGradient3974-7-8-4"
       id="radialGradient4125"
       gradientUnits="userSpaceOnUse"
       gradientTransform="matrix(0.99208162,-0.52830562,0.56243739,1.0561762,470.44004,157.652)"
       cx="-238.57777"
       cy="534.86475"
       fx="-238.57777"
       fy="534.86475"
       r="106.82169" />
    <radialGradient
       inkscape:collect="always"
       xlink:href="#linearGradient3974-7-7"
       id="radialGradient4127"
       gradientUnits="userSpaceOnUse"
       gradientTransform="matrix(-0.03851472,1.1233207,-1.1958941,-0.04100302,1160.4831,1145.7882)"
       cx="-238.57777"
       cy="534.86475"
       fx="-238.57777"
       fy="534.86475"
       r="106.82169" />
    <linearGradient
       inkscape:collect="always"
       xlink:href="#linearGradient3980-2"
       id="linearGradient4129"
       gradientUnits="userSpaceOnUse"
       gradientTransform="matrix(0.56167845,0,0,0.56966258,659.51271,463.5108)"
       x1="-228.97643"
       y1="767.25244"
       x2="-229.28537"
       y2="458.36371" />
    <linearGradient
       inkscape:collect="always"
       xlink:href="#linearGradient3986-4"
       id="linearGradient4131"
       gradientUnits="userSpaceOnUse"
       gradientTransform="matrix(0.53358103,0,0,0.53358103,310.17434,559.06091)"
       x1="415.98639"
       y1="552.34839"
       x2="411.33044"
       y2="294.93735" />
    <radialGradient
       inkscape:collect="always"
       xlink:href="#linearGradient3974-4-2"
       id="radialGradient4146-9"
       gradientUnits="userSpaceOnUse"
       gradientTransform="matrix(-0.60678198,-0.37862517,0.40308668,-0.64598381,219.0543,672.47397)"
       cx="-238.57777"
       cy="534.86475"
       fx="-238.57777"
       fy="534.86475"
       r="106.82169" />
    <linearGradient
       id="linearGradient3974-4-2">
      <stop
         style="stop-color:#f2f2f2;stop-opacity:1;"
         offset="0"
         id="stop3976-8-7" />
      <stop
         style="stop-color:#999999;stop-opacity:1;"
         offset="1"
         id="stop3978-8-9" />
    </linearGradient>
    <radialGradient
       r="106.82169"
       fy="534.86475"
       fx="-238.57777"
       cy="534.86475"
       cx="-238.57777"
       gradientTransform="matrix(-0.02450803,0.71480119,-0.76098173,-0.0260914,983.07283,606.06665)"
       gradientUnits="userSpaceOnUse"
       id="radialGradient4932-4"
       xlink:href="#linearGradient3974-4-2-3"
       inkscape:collect="always" />
    <linearGradient
       id="linearGradient3974-4-2-3">
      <stop
         style="stop-color:#f2f2f2;stop-opacity:1;"
         offset="0"
         id="stop3976-8-7-1" />
      <stop
         style="stop-color:#999999;stop-opacity:1;"
         offset="1"
         id="stop3978-8-9-2" />
    </linearGradient>
    <linearGradient
       inkscape:collect="always"
       xlink:href="#linearGradient4428-0-3-7"
       id="linearGradient5014"
       gradientUnits="userSpaceOnUse"
       x1="553.26495"
       y1="715.49017"
       x2="558.23993"
       y2="1102.5426" />
    <radialGradient
       inkscape:collect="always"
       xlink:href="#linearGradient3974-4"
       id="radialGradient5016"
       gradientUnits="userSpaceOnUse"
       gradientTransform="matrix(-0.60678198,-0.37862517,0.40308668,-0.64598381,219.0543,672.47397)"
       cx="-238.57777"
       cy="534.86475"
       fx="-238.57777"
       fy="534.86475"
       r="106.82169" />
    <radialGradient
       inkscape:collect="always"
       xlink:href="#linearGradient3974-4-2"
       id="radialGradient5018"
       gradientUnits="userSpaceOnUse"
       gradientTransform="matrix(-0.02450803,0.71480119,-0.76098173,-0.0260914,983.07283,606.06665)"
       cx="-238.57777"
       cy="534.86475"
       fx="-238.57777"
       fy="534.86475"
       r="106.82169" />
    <radialGradient
       inkscape:collect="always"
       xlink:href="#linearGradient3974-4-2-3"
       id="radialGradient5020"
       gradientUnits="userSpaceOnUse"
       gradientTransform="matrix(0.63129,-0.33617602,0.35789505,0.67207521,544.13386,-24.313734)"
       cx="-238.57777"
       cy="534.86475"
       fx="-238.57777"
       fy="534.86475"
       r="106.82169" />
    <linearGradient
       inkscape:collect="always"
       xlink:href="#linearGradient3980-2"
       id="linearGradient5022"
       gradientUnits="userSpaceOnUse"
       gradientTransform="matrix(0.3574121,0,0,0.36249263,662.98355,173.38809)"
       x1="-228.97643"
       y1="767.25244"
       x2="-229.28537"
       y2="458.36371" />
    <linearGradient
       inkscape:collect="always"
       xlink:href="#linearGradient3986-4"
       id="linearGradient5024"
       gradientUnits="userSpaceOnUse"
       gradientTransform="matrix(0.33953291,0,0,0.33953291,440.68953,234.18937)"
       x1="415.98639"
       y1="552.34839"
       x2="411.33044"
       y2="294.93735" />
    <linearGradient
       inkscape:collect="always"
       xlink:href="#linearGradient4428-0"
       id="linearGradient5184"
       gradientUnits="userSpaceOnUse"
       x1="553.26495"
       y1="715.49017"
       x2="558.23993"
       y2="1102.5426" />
    <radialGradient
       inkscape:collect="always"
       xlink:href="#linearGradient4984-0-1"
       id="radialGradient5186"
       gradientUnits="userSpaceOnUse"
       gradientTransform="matrix(0.63128998,-0.33617601,0.35789504,0.6720752,841.78934,-225.3088)"
       cx="-238.57777"
       cy="534.86475"
       fx="-238.57777"
       fy="534.86475"
       r="106.82169" />
    <radialGradient
       inkscape:collect="always"
       xlink:href="#linearGradient4984-0"
       id="radialGradient5188"
       gradientUnits="userSpaceOnUse"
       gradientTransform="matrix(-0.02450802,0.71480117,-0.7609817,-0.0260914,1282.0161,407.19791)"
       cx="-238.57777"
       cy="534.86475"
       fx="-238.57777"
       fy="534.86475"
       r="106.82169" />
    <radialGradient
       inkscape:collect="always"
       xlink:href="#linearGradient4984"
       id="radialGradient5190"
       gradientUnits="userSpaceOnUse"
       gradientTransform="matrix(-0.60678198,-0.37862517,0.40308668,-0.64598381,517.08777,469.42418)"
       cx="-238.57777"
       cy="534.86475"
       fx="-238.57777"
       fy="534.86475"
       r="106.82169" />
    <linearGradient
       inkscape:collect="always"
       xlink:href="#linearGradient5149"
       id="linearGradient5192"
       gradientUnits="userSpaceOnUse"
       gradientTransform="matrix(0.3574121,0,0,0.36249263,961.01701,-29.661687)"
       x1="-228.97643"
       y1="767.25244"
       x2="-229.28537"
       y2="458.36371" />
    <linearGradient
       inkscape:collect="always"
       xlink:href="#linearGradient4990"
       id="linearGradient5194"
       gradientUnits="userSpaceOnUse"
       gradientTransform="matrix(0.33953291,0,0,0.33953291,738.72299,31.139588)"
       x1="415.98639"
       y1="552.34839"
       x2="411.33044"
       y2="294.93735" />
    <linearGradient
       inkscape:collect="always"
       xlink:href="#linearGradient4428-0-3"
       id="linearGradient5196"
       gradientUnits="userSpaceOnUse"
       x1="553.26495"
       y1="715.49017"
       x2="558.23993"
       y2="1102.5426" />
    <radialGradient
       inkscape:collect="always"
       xlink:href="#linearGradient3974"
       id="radialGradient5198"
       gradientUnits="userSpaceOnUse"
       gradientTransform="matrix(-0.95356693,-0.5950151,0.63345673,-1.0151732,-38.128718,1247.8317)"
       cx="-238.57777"
       cy="534.86475"
       fx="-238.57777"
       fy="534.86475"
       r="106.82169" />
    <radialGradient
       inkscape:collect="always"
       xlink:href="#linearGradient3974-7-8"
       id="radialGradient5200"
       gradientUnits="userSpaceOnUse"
       gradientTransform="matrix(0.99208162,-0.52830562,0.56243739,1.0561762,470.44004,157.652)"
       cx="-238.57777"
       cy="534.86475"
       fx="-238.57777"
       fy="534.86475"
       r="106.82169" />
    <radialGradient
       inkscape:collect="always"
       xlink:href="#linearGradient3974-7"
       id="radialGradient5202"
       gradientUnits="userSpaceOnUse"
       gradientTransform="matrix(-0.03851472,1.1233207,-1.1958941,-0.04100302,1160.4831,1145.7882)"
       cx="-238.57777"
       cy="534.86475"
       fx="-238.57777"
       fy="534.86475"
       r="106.82169" />
    <linearGradient
       inkscape:collect="always"
       xlink:href="#linearGradient3980"
       id="linearGradient5204"
       gradientUnits="userSpaceOnUse"
       gradientTransform="matrix(0.56167845,0,0,0.56966258,659.51271,463.5108)"
       x1="-228.97643"
       y1="767.25244"
       x2="-229.28537"
       y2="458.36371" />
    <linearGradient
       inkscape:collect="always"
       xlink:href="#linearGradient3986"
       id="linearGradient5206"
       gradientUnits="userSpaceOnUse"
       gradientTransform="matrix(0.53358103,0,0,0.53358103,310.17434,559.06091)"
       x1="415.98639"
       y1="552.34839"
       x2="411.33044"
       y2="294.93735" />
    <linearGradient
       inkscape:collect="always"
       xlink:href="#linearGradient4428"
       id="linearGradient5208"
       gradientUnits="userSpaceOnUse"
       x1="553.26495"
       y1="715.49017"
       x2="558.23993"
       y2="1102.5426" />
    <radialGradient
       inkscape:collect="always"
       xlink:href="#linearGradient4189"
       id="radialGradient5210"
       gradientUnits="userSpaceOnUse"
       gradientTransform="matrix(-1.787108,-1.1151354,1.18718,-1.9025661,-652.76507,1290.8457)"
       cx="-238.57777"
       cy="534.86475"
       fx="-238.57777"
       fy="534.86475"
       r="106.82169" />
    <radialGradient
       inkscape:collect="always"
       xlink:href="#linearGradient4189-8-6"
       id="radialGradient5212"
       gradientUnits="userSpaceOnUse"
       gradientTransform="matrix(1.8592896,-0.99011321,1.0540806,1.9794111,300.22983,-756.0506)"
       cx="-238.57777"
       cy="534.86475"
       fx="-238.57777"
       fy="534.86475"
       r="106.82169" />
    <radialGradient
       inkscape:collect="always"
       xlink:href="#linearGradient4189-8"
       id="radialGradient5214"
       gradientUnits="userSpaceOnUse"
       gradientTransform="matrix(-0.07218159,2.1052486,-2.2412606,-0.07684499,1597.8161,1101.0029)"
       cx="-238.57777"
       cy="534.86475"
       fx="-238.57777"
       fy="534.86475"
       r="106.82169" />
    <linearGradient
       inkscape:collect="always"
       xlink:href="#linearGradient4124"
       id="linearGradient5216"
       gradientUnits="userSpaceOnUse"
       gradientTransform="matrix(1.0526582,0,0,1.0676215,654.70538,-179.07328)"
       x1="-228.97643"
       y1="767.25244"
       x2="-229.28537"
       y2="458.36371" />
    <linearGradient
       inkscape:collect="always"
       xlink:href="#linearGradient4472"
       id="linearGradient5218"
       gradientUnits="userSpaceOnUse"
       x1="415.98639"
       y1="552.34839"
       x2="411.33044"
       y2="294.93735" />
    <linearGradient
       inkscape:collect="always"
       xlink:href="#linearGradient4428"
       id="linearGradient5252"
       gradientUnits="userSpaceOnUse"
       x1="553.26495"
       y1="715.49017"
       x2="558.23993"
       y2="1102.5426" />
    <radialGradient
       inkscape:collect="always"
       xlink:href="#linearGradient4189"
       id="radialGradient5254"
       gradientUnits="userSpaceOnUse"
       gradientTransform="matrix(-1.787108,-1.1151354,1.18718,-1.9025661,-652.76507,1290.8457)"
       cx="-238.57777"
       cy="534.86475"
       fx="-238.57777"
       fy="534.86475"
       r="106.82169" />
    <radialGradient
       inkscape:collect="always"
       xlink:href="#linearGradient4189-8-6"
       id="radialGradient5256"
       gradientUnits="userSpaceOnUse"
       gradientTransform="matrix(1.8592896,-0.99011321,1.0540806,1.9794111,300.22983,-756.0506)"
       cx="-238.57777"
       cy="534.86475"
       fx="-238.57777"
       fy="534.86475"
       r="106.82169" />
    <radialGradient
       inkscape:collect="always"
       xlink:href="#linearGradient4189-8"
       id="radialGradient5258"
       gradientUnits="userSpaceOnUse"
       gradientTransform="matrix(-0.07218159,2.1052486,-2.2412606,-0.07684499,1597.8161,1101.0029)"
       cx="-238.57777"
       cy="534.86475"
       fx="-238.57777"
       fy="534.86475"
       r="106.82169" />
    <linearGradient
       inkscape:collect="always"
       xlink:href="#linearGradient4124"
       id="linearGradient5260"
       gradientUnits="userSpaceOnUse"
       gradientTransform="matrix(1.0526582,0,0,1.0676215,654.70538,-179.07328)"
       x1="-228.97643"
       y1="767.25244"
       x2="-229.28537"
       y2="458.36371" />
    <linearGradient
       inkscape:collect="always"
       xlink:href="#linearGradient4472"
       id="linearGradient5262"
       gradientUnits="userSpaceOnUse"
       x1="415.98639"
       y1="552.34839"
       x2="411.33044"
       y2="294.93735" />
    <linearGradient
       inkscape:collect="always"
       xlink:href="#linearGradient4428-0"
       id="linearGradient5264"
       gradientUnits="userSpaceOnUse"
       x1="553.26495"
       y1="715.49017"
       x2="558.23993"
       y2="1102.5426" />
    <radialGradient
       inkscape:collect="always"
       xlink:href="#linearGradient4984-0-1"
       id="radialGradient5266"
       gradientUnits="userSpaceOnUse"
       gradientTransform="matrix(0.63128998,-0.33617601,0.35789504,0.6720752,841.78934,-225.3088)"
       cx="-238.57777"
       cy="534.86475"
       fx="-238.57777"
       fy="534.86475"
       r="106.82169" />
    <radialGradient
       inkscape:collect="always"
       xlink:href="#linearGradient4984-0"
       id="radialGradient5268"
       gradientUnits="userSpaceOnUse"
       gradientTransform="matrix(-0.02450802,0.71480117,-0.7609817,-0.0260914,1282.0161,407.19791)"
       cx="-238.57777"
       cy="534.86475"
       fx="-238.57777"
       fy="534.86475"
       r="106.82169" />
    <radialGradient
       inkscape:collect="always"
       xlink:href="#linearGradient4984"
       id="radialGradient5270"
       gradientUnits="userSpaceOnUse"
       gradientTransform="matrix(-0.60678198,-0.37862517,0.40308668,-0.64598381,517.08777,469.42418)"
       cx="-238.57777"
       cy="534.86475"
       fx="-238.57777"
       fy="534.86475"
       r="106.82169" />
    <linearGradient
       inkscape:collect="always"
       xlink:href="#linearGradient5149"
       id="linearGradient5272"
       gradientUnits="userSpaceOnUse"
       gradientTransform="matrix(0.3574121,0,0,0.36249263,961.01701,-29.661687)"
       x1="-228.97643"
       y1="767.25244"
       x2="-229.28537"
       y2="458.36371" />
    <linearGradient
       inkscape:collect="always"
       xlink:href="#linearGradient4990"
       id="linearGradient5274"
       gradientUnits="userSpaceOnUse"
       gradientTransform="matrix(0.33953291,0,0,0.33953291,738.72299,31.139588)"
       x1="415.98639"
       y1="552.34839"
       x2="411.33044"
       y2="294.93735" />
    <linearGradient
       inkscape:collect="always"
       xlink:href="#linearGradient4428-0-3"
       id="linearGradient5276"
       gradientUnits="userSpaceOnUse"
       x1="553.26495"
       y1="715.49017"
       x2="558.23993"
       y2="1102.5426" />
    <radialGradient
       inkscape:collect="always"
       xlink:href="#linearGradient3974"
       id="radialGradient5278"
       gradientUnits="userSpaceOnUse"
       gradientTransform="matrix(-0.95356693,-0.5950151,0.63345673,-1.0151732,-38.128718,1247.8317)"
       cx="-238.57777"
       cy="534.86475"
       fx="-238.57777"
       fy="534.86475"
       r="106.82169" />
    <radialGradient
       inkscape:collect="always"
       xlink:href="#linearGradient3974-7-8"
       id="radialGradient5280"
       gradientUnits="userSpaceOnUse"
       gradientTransform="matrix(0.99208162,-0.52830562,0.56243739,1.0561762,470.44004,157.652)"
       cx="-238.57777"
       cy="534.86475"
       fx="-238.57777"
       fy="534.86475"
       r="106.82169" />
    <radialGradient
       inkscape:collect="always"
       xlink:href="#linearGradient3974-7"
       id="radialGradient5282"
       gradientUnits="userSpaceOnUse"
       gradientTransform="matrix(-0.03851472,1.1233207,-1.1958941,-0.04100302,1160.4831,1145.7882)"
       cx="-238.57777"
       cy="534.86475"
       fx="-238.57777"
       fy="534.86475"
       r="106.82169" />
    <linearGradient
       inkscape:collect="always"
       xlink:href="#linearGradient3980"
       id="linearGradient5284"
       gradientUnits="userSpaceOnUse"
       gradientTransform="matrix(0.56167845,0,0,0.56966258,659.51271,463.5108)"
       x1="-228.97643"
       y1="767.25244"
       x2="-229.28537"
       y2="458.36371" />
    <linearGradient
       inkscape:collect="always"
       xlink:href="#linearGradient3986"
       id="linearGradient5286"
       gradientUnits="userSpaceOnUse"
       gradientTransform="matrix(0.53358103,0,0,0.53358103,310.17434,559.06091)"
       x1="415.98639"
       y1="552.34839"
       x2="411.33044"
       y2="294.93735" />
  </defs>
  <sodipodi:namedview
     id="base"
     pagecolor="#ffffff"
     bordercolor="#666666"
     borderopacity="1.0"
     inkscape:pageopacity="0.0"
     inkscape:pageshadow="2"
     inkscape:zoom="0.59770297"
     inkscape:cx="372.04724"
     inkscape:cy="526.18109"
     inkscape:document-units="px"
     inkscape:current-layer="layer1"
     showgrid="false"
     inkscape:window-width="1440"
     inkscape:window-height="851"
     inkscape:window-x="-4"
     inkscape:window-y="-4"
     inkscape:window-maximized="1" />
  <metadata
     id="metadata3747">
    <rdf:RDF>
      <cc:Work
         rdf:about="">
        <dc:format>image/svg+xml</dc:format>
        <dc:type
           rdf:resource="http://purl.org/dc/dcmitype/StillImage" />
        <dc:title></dc:title>
      </cc:Work>
    </rdf:RDF>
  </metadata>
  <g
     inkscape:label="Layer 1"
     inkscape:groupmode="layer"
     id="layer1">
    <g
       id="g5064"
       transform="translate(10.077549,16.036665)">
      <path
         transform="matrix(0.35852776,0,0,0.35852776,-64.631785,-153.91003)"
         d="m 794.70911,923.53564 c 0,132.13376 -107.11555,239.24926 -239.24927,239.24926 -132.13372,0 -239.24927,-107.1155 -239.24927,-239.24926 0,-132.13372 107.11555,-239.24926 239.24927,-239.24926 132.13372,0 239.24927,107.11554 239.24927,239.24926 z"
         sodipodi:ry="239.24927"
         sodipodi:rx="239.24927"
         sodipodi:cy="923.53564"
         sodipodi:cx="555.45984"
         id="path4396"
         style="fill:url(#linearGradient5252);fill-opacity:1;stroke:#a9a9a9;stroke-width:3.17688084;stroke-miterlimit:4;stroke-opacity:1;stroke-dasharray:none"
         sodipodi:type="arc" />
      <g
         transform="matrix(0.3395329,0,0,0.3395329,-6.4697535,-5.3430462)"
         id="g4480">
        <path
           style="fill:#ff0000;fill-opacity:1;stroke:none"
           d="m 227.31257,647.52081 c -58.98614,-103.61929 -23.98113,-236.11673 78.18585,-295.94134 32.47246,-19.0145 69.30786,-29.02482 106.80386,-29.02482 l 0,216.64412 z"
           id="path3820-4-0-9"
           inkscape:connector-curvature="0" />
        <path
           style="fill:url(#radialGradient5254);fill-opacity:1;stroke:none"
           d="m 223.33522,648.22152 c -58.98614,-103.61929 -23.98113,-236.11673 78.18585,-295.94134 32.47246,-19.0145 69.30786,-29.02482 106.80386,-29.02482 l 0,216.64412 z"
           id="path3820-4-0-9-9"
           inkscape:connector-curvature="0" />
        <path
           style="fill:url(#radialGradient5256);fill-opacity:1;stroke:none"
           d="m 418.70855,323.98676 c 119.23,0.72614 216.47366,97.2901 217.19979,215.68159 0.23081,37.62923 -9.5177,74.53478 -28.2657,107.00727 L 420.02333,538.35356 z"
           id="path3820-4-0-9-9-8-8"
           inkscape:connector-curvature="0" />
        <path
           style="fill:url(#radialGradient5258);fill-opacity:1;stroke:none"
           d="M 603.237,663.58987 C 542.99314,766.48301 410.74447,802.41651 307.85137,743.84961 275.14809,725.23488 248.0612,698.33965 229.3132,665.86716 L 416.93251,557.5451 z"
           id="path3820-4-0-9-9-8"
           inkscape:connector-curvature="0" />
        <path
           inkscape:connector-curvature="0"
           style="font-size:medium;font-style:normal;font-variant:normal;font-weight:normal;font-stretch:normal;text-indent:0;text-align:start;text-decoration:none;line-height:normal;letter-spacing:normal;word-spacing:normal;text-transform:none;direction:ltr;block-progression:tb;writing-mode:lr-tb;text-anchor:start;baseline-shift:baseline;color:#000000;fill:url(#linearGradient5260);fill-opacity:1;fill-rule:nonzero;stroke:#e61616;stroke-width:8.5;stroke-miterlimit:4;stroke-opacity:1;stroke-dasharray:none;marker:none;visibility:visible;display:inline;overflow:visible;enable-background:accumulate;font-family:Sans;-inkscape-font-specification:Sans"
           d="m 412.26504,304.75944 c -40.58093,0 -80.45093,10.84921 -115.59503,31.42811 -110.39475,64.64243 -148.37675,208.32247 -84.6403,320.28645 a 17.581151,17.831063 0 0 0 0.0328,0.0333 17.581151,17.831063 0 0 0 2.17111,6.53918 c 20.29046,35.64361 49.49618,65.23124 84.6403,85.81008 110.39476,64.64256 252.06101,26.15395 315.79746,-85.81008 a 17.581151,17.831063 0 0 0 1.54609,-3.60322 17.581151,17.831063 0 0 0 2.13821,-2.96933 c 20.29049,-35.64361 30.98764,-76.08042 30.98763,-117.23818 0,-129.28488 -103.71716,-234.47637 -231.19006,-234.47637 a 17.581151,17.831063 0 0 0 -2.86191,0.2669 17.581151,17.831063 0 0 0 -0.0328,0 17.581151,17.831063 0 0 0 -2.9935,-0.2669 z m -17.59913,36.56603 0,187.60112 -160.20142,93.8506 c -42.41879,-92.49487 -9.0307,-203.72979 79.77175,-255.72871 24.70283,-14.46493 52.16025,-23.14012 80.42967,-25.72301 z m 41.05367,0 c 100.18495,8.99417 178.45846,93.91589 178.45846,197.91034 10e-6,28.92974 -6.32791,57.38671 -18.25704,83.50802 l -160.20142,-93.81724 0,-187.60112 z m -21.25054,225.06796 160.20142,93.81724 c -57.77283,83.4975 -169.43126,109.78192 -258.23021,57.78502 -24.69963,-14.46297 -45.83327,-34.25048 -62.17263,-57.78502 l 160.20142,-93.81724 z"
           id="path3820-4-2-6" />
        <path
           style="font-size:medium;font-style:normal;font-variant:normal;font-weight:normal;font-stretch:normal;text-indent:0;text-align:start;text-decoration:none;line-height:normal;letter-spacing:normal;word-spacing:normal;text-transform:none;direction:ltr;block-progression:tb;writing-mode:lr-tb;text-anchor:start;baseline-shift:baseline;color:#000000;fill:url(#linearGradient5262);fill-opacity:1;fill-rule:nonzero;stroke:none;stroke-width:4;marker:none;visibility:visible;display:inline;overflow:visible;enable-background:accumulate;font-family:Sans;-inkscape-font-specification:Sans"
           d="m 415.25,290.46875 c -2.65007,0.008 -5.3125,0.0312 -5.3125,0.0312 l -0.0312,0 c -133.93518,2.84085 -241.875,112.48864 -241.875,247.09375 0,44.91844 12.00659,87.07979 33,123.40625 l 0,0.0312 0.0312,0 c 0,0 1.36961,2.24831 2.75,4.5 0.69019,1.12585 1.39283,2.2485 1.90625,3.09375 0.1388,0.22851 0.20322,0.38136 0.3125,0.5625 l 0,0.0312 0.28125,0.4375 c 0.0445,0.0746 0.0642,0.10593 0.0937,0.15625 0.007,0.0119 0.0253,0.021 0.0312,0.0312 0.002,0.005 -0.002,0.0267 0,0.0312 0.005,0.009 0.027,0.0239 0.0312,0.0312 0.0145,0.0252 0.0403,0.0481 0.0312,0.0312 l 0.0937,0.15625 c 43.89573,68.91203 120.97179,114.71875 208.625,114.71875 87.65858,0 164.76193,-45.79942 208.65625,-114.71875 l 0.0312,-0.0312 c 0,0 1.37552,-2.29152 2.75,-4.5625 0.68724,-1.13549 1.3636,-2.25379 1.875,-3.09375 0.2557,-0.41998 0.48064,-0.76575 0.625,-1 0.0511,-0.0829 0.0622,-0.13694 0.0937,-0.1875 -0.0159,0.0206 -0.0213,0.0467 -0.0625,0.0937 -0.0412,0.0471 -0.31273,0.28143 -0.3125,0.28125 2.3e-4,-1.8e-4 -2.90631,-0.53135 -2.90625,-0.53125 6e-5,10e-5 -0.21865,-1.59413 -0.21875,-1.59375 l 3.6566,1.5316 c 20.99299,-36.32576 33.03125,-78.48694 33.03125,-123.40625 0,-134.55433 -107.88524,-244.17306 -241.75,-247.09375 -0.0105,-2.3e-4 -0.0208,2.3e-4 -0.0312,0 -0.0679,-0.007 -0.0881,0.002 -0.125,0 -0.0184,-8.8e-4 -0.0441,8e-4 -0.0625,0 -0.11058,-0.005 -0.22489,-0.0288 -0.375,-0.0312 -0.30023,-0.005 -0.72222,0.002 -1.21875,0 -0.99307,-0.003 -2.29996,-0.004 -3.625,0 z m 0,4 c 1.32086,-0.004 2.64891,-0.003 3.625,0 l 0.21875,0 1.34375,0.0312 c 131.80157,2.79308 238,110.62503 238,243.09375 0,44.16532 -11.81831,85.59568 -32.4375,121.3125 -0.0304,0.0455 -0.0388,0.0562 -0.0625,0.0937 -0.0474,0.075 -0.11146,0.18911 -0.1875,0.3125 -0.15209,0.24678 -0.36745,0.57699 -0.625,1 -0.51509,0.84602 -1.21811,1.98802 -1.90625,3.125 -1.3652,2.25565 -2.69681,4.49489 -2.71875,4.53125 -1.8e-4,3e-4 -0.0312,0.0312 -0.0312,0.0312 -43.1897,67.78632 -118.99956,112.8125 -205.25,112.8125 -86.17032,0 -161.91494,-44.9436 -205.125,-112.625 -0.0328,-0.0709 -0.0481,-0.0981 -0.0625,-0.125 -0.0207,-0.0387 -0.0456,-0.064 -0.0625,-0.0937 -0.007,-0.0116 -0.0243,-0.0191 -0.0312,-0.0312 -0.0499,-0.0868 -0.11002,-0.21383 -0.1875,-0.34375 -0.15496,-0.25984 -0.36546,-0.60397 -0.625,-1.03125 -0.51908,-0.85456 -1.21463,-1.99682 -1.90625,-3.125 -1.38325,-2.25636 -2.75,-4.5 -2.75,-4.5 l -0.0312,0 C 183.80585,623.21303 172.0314,581.77494 172.0314,537.5937 c 0,-132.45686 106.12146,-240.28171 237.90625,-243.09375 0,0 0.0311,0 0.0312,0 0.031,-1.9e-4 2.65507,-0.023 5.28125,-0.0312 z m -3.3125,16.28125 -2.0625,0.0625 c -0.0709,0.002 -0.23885,-0.008 -0.53125,0 -122.68273,3.10158 -221,103.34912 -221,226.78125 0,41.26571 11.00516,79.95929 30.21875,113.28125 l 1,1.75 1.71875,-1 189.65625,-109.5 1,-0.59375 0,-1.15625 0,-227.5625 0,-2.0625 z m 6.53125,0 0,2.0625 0,227.5625 0,1.15625 1,0.59375 189.65625,109.5 1.75,1 1,-1.75 c 19.21316,-33.32121 30.21875,-72.01459 30.21875,-113.28125 0,-123.61765 -98.62326,-223.96703 -221.5625,-226.78125 l -2.0625,-0.0625 z m -10.53125,4.125 0,224.34375 L 221.09375,647.125 c -18.265,-32.34009 -28.75,-69.68397 -28.75,-109.53125 0,-120.80274 95.73835,-218.89124 215.59375,-222.71875 z m 14.53125,0.0312 c 119.86064,3.82243 215.625,101.88189 215.625,222.6875 0,39.84561 -10.48426,77.19085 -28.75,109.53125 l -186.875,-107.90625 0,-224.3125 z m -7.25,232.3125 -1,0.59375 -189.4375,109.375 -1.8125,1.0625 1.125,1.75 c 40.30746,62.86869 110.81934,104.46875 191.125,104.46875 80.30566,0 150.81778,-41.60043 191.125,-104.46875 l 1.125,-1.75 -1.8125,-1.0625 -189.4375,-109.375 -1,-0.59375 z m 0,4.625 186.5625,107.71875 c -39.77591,60.77903 -108.38718,100.90625 -186.5625,100.90625 -78.17436,0 -146.78606,-40.12883 -186.5625,-100.90625 L 415.21875,551.8437 z"
           id="path2985"
           inkscape:connector-curvature="0" />
      </g>
      <path
         sodipodi:nodetypes="csccsccsccccccsccscccccscc"
         inkscape:connector-curvature="0"
         id="path2985-6"
         d="M 132.72126,93.968905 C 87.608448,94.925776 51.262022,131.8535 51.262022,177.19345 c 0,15.13037 4.041412,29.31927 11.111645,41.55343 0,0 1.880191,3.05285 1.87319,3.06967 14.783744,23.20904 40.744453,38.63086 70.269133,38.63086 29.52656,0 55.48586,-15.41936 70.26913,-38.63086 0,0 1.87251,-3.10294 1.86338,-3.06967 7.07023,-12.23416 11.12145,-26.42306 11.12145,-41.55343 0,-45.34049 -36.35547,-82.268519 -81.46904,-83.224545 0.0276,-0.02261 -3.57965,0 -3.57965,0 z m -0.18634,6.894515 c 0.0616,-0.002 0.12465,0.002 0.18634,0 l 0,77.27153 -64.394576,37.17938 c -6.465973,-11.21388 -10.160339,-24.23022 -10.160339,-38.12088 0,-41.5489 33.074097,-75.28605 74.368575,-76.33003 z m 3.76599,0 c 41.38105,0.94726 74.56472,34.71879 74.56472,76.33003 0,13.89066 -3.70417,26.907 -10.17014,38.12088 l -64.39458,-37.17938 z m -1.78492,80.38043 64.31611,37.14016 c -13.56497,21.15767 -37.28418,35.15908 -64.31611,35.15908 -27.03193,0 -50.760952,-14.00141 -64.325922,-35.15908 z"
         style="font-size:medium;font-style:normal;font-variant:normal;font-weight:normal;font-stretch:normal;text-indent:0;text-align:start;text-decoration:none;line-height:normal;letter-spacing:normal;word-spacing:normal;text-transform:none;direction:ltr;block-progression:tb;writing-mode:lr-tb;text-anchor:start;baseline-shift:baseline;color:#000000;fill:#1a1a1a;fill-opacity:1;stroke:none;stroke-width:4;marker:none;visibility:visible;display:inline;overflow:visible;enable-background:accumulate;font-family:Sans;-inkscape-font-specification:Sans" />
    </g>
    <g
       id="g5173"
       transform="translate(227.45347,-332.9413)">
      <path
         transform="matrix(0.35852777,0,0,0.35852777,172.89946,195.06792)"
         d="m 794.70911,923.53564 c 0,132.13376 -107.11555,239.24926 -239.24927,239.24926 -132.13372,0 -239.24927,-107.1155 -239.24927,-239.24926 0,-132.13372 107.11555,-239.24926 239.24927,-239.24926 132.13372,0 239.24927,107.11554 239.24927,239.24926 z"
         sodipodi:ry="239.24927"
         sodipodi:rx="239.24927"
         sodipodi:cy="923.53564"
         sodipodi:cx="555.45984"
         id="path4396-5"
         style="fill:url(#linearGradient5264);fill-opacity:1;stroke:#a9a9a9;stroke-width:3.17819858;stroke-miterlimit:4;stroke-opacity:1;stroke-dasharray:none"
         sodipodi:type="arc" />
      <g
         transform="translate(-507.66202,312.49515)"
         id="g5155">
        <path
           style="fill:#ff0000;fill-opacity:1;stroke:none"
           d="m 815.90309,250.99421 c -20.02774,-35.18216 -8.14238,-80.1694 26.54667,-100.48182 11.02547,-6.45605 23.5323,-9.85489 36.26343,-9.85489 l 0,73.55782 z"
           id="path3820-4-0-9-7"
           inkscape:connector-curvature="0" />
        <path
           style="fill:url(#radialGradient5266);fill-opacity:1;stroke:none"
           d="m 882.01676,141.39941 c 40.48253,0.24655 73.49995,33.03319 73.7465,73.231 0.0784,12.77636 -3.23159,25.30701 -9.59715,36.33249 L 882.4632,214.184 z"
           id="path3820-4-0-9-9-2-3-5"
           inkscape:connector-curvature="0" />
        <path
           style="fill:url(#radialGradient5268);fill-opacity:1;stroke:none"
           d="m 944.3237,258.68177 c -20.45478,34.93562 -65.35755,47.13622 -100.29316,27.25084 -11.10383,-6.32031 -20.30071,-15.45214 -26.66628,-26.47762 l 63.70292,-36.77889 z"
           id="path3820-4-0-9-9-2-3"
           inkscape:connector-curvature="0" />
        <path
           style="fill:url(#radialGradient5270);fill-opacity:1;stroke:none"
           d="m 814.55265,251.23213 c -20.02774,-35.18216 -8.14239,-80.1694 26.54666,-100.48183 11.02547,-6.45605 23.5323,-9.85488 36.26343,-9.85488 l 0,73.55781 z"
           id="path3820-4-0-9-9-2"
           inkscape:connector-curvature="0" />
        <path
           inkscape:connector-curvature="0"
           style="font-size:medium;font-style:normal;font-variant:normal;font-weight:normal;font-stretch:normal;text-indent:0;text-align:start;text-decoration:none;line-height:normal;letter-spacing:normal;word-spacing:normal;text-transform:none;direction:ltr;block-progression:tb;writing-mode:lr-tb;text-anchor:start;baseline-shift:baseline;color:#000000;fill:url(#linearGradient5272);fill-opacity:1;fill-rule:nonzero;stroke:#1628e6;stroke-width:2.88602948;stroke-miterlimit:4;stroke-opacity:1;stroke-dasharray:none;marker:none;visibility:visible;display:inline;overflow:visible;enable-background:accumulate;font-family:Sans;-inkscape-font-specification:Sans"
           d="m 878.70054,134.61545 c -13.77856,0 -27.31574,3.68366 -39.24832,10.67087 -37.48265,21.94823 -50.37879,70.73234 -28.73817,108.74779 a 5.9693793,6.0542327 0 0 0 0.0111,0.0113 5.9693793,6.0542327 0 0 0 0.73717,2.22026 c 6.88927,12.10219 16.80558,22.14816 28.73816,29.13535 37.48265,21.94828 85.58301,8.88013 107.22363,-29.13535 a 5.9693793,6.0542327 0 0 0 0.52495,-1.22341 5.9693793,6.0542327 0 0 0 0.72599,-1.00818 c 6.88929,-12.10218 10.52133,-25.83181 10.52132,-39.80622 0,-43.89647 -35.21539,-79.61245 -78.49663,-79.61245 a 5.9693793,6.0542327 0 0 0 -0.97171,0.0906 5.9693793,6.0542327 0 0 0 -0.0111,0 5.9693793,6.0542327 0 0 0 -1.01639,-0.0906 z m -5.97549,12.41537 0,63.69675 -54.39365,31.86536 c -14.40258,-31.40504 -3.06622,-69.17296 27.08514,-86.8283 8.38742,-4.91133 17.71012,-7.85684 27.30851,-8.73381 z m 13.93908,0 c 34.01608,3.05381 60.59252,31.88753 60.59252,67.19707 0,9.8226 -2.14854,19.48468 -6.19887,28.35372 l -54.39365,-31.85404 0,-63.69675 z m -7.21526,76.41798 54.39366,31.85404 c -19.61578,28.35014 -57.5275,37.27457 -87.67766,19.61991 -8.38634,-4.91065 -15.56191,-11.62917 -21.10965,-19.61991 l 54.39365,-31.85404 z"
           id="path3820-4-2-6-9" />
        <path
           style="font-size:medium;font-style:normal;font-variant:normal;font-weight:normal;font-stretch:normal;text-indent:0;text-align:start;text-decoration:none;line-height:normal;letter-spacing:normal;word-spacing:normal;text-transform:none;direction:ltr;block-progression:tb;writing-mode:lr-tb;text-anchor:start;baseline-shift:baseline;color:#000000;fill:url(#linearGradient5274);fill-opacity:1;fill-rule:nonzero;stroke:none;stroke-width:4;marker:none;visibility:visible;display:inline;overflow:visible;enable-background:accumulate;font-family:Sans;-inkscape-font-specification:Sans"
           d="m 879.71403,129.76328 c -0.89978,0.003 -1.80377,0.0106 -1.80377,0.0106 l -0.0106,0 c -45.47541,0.96456 -82.12453,38.1936 -82.12453,83.89646 0,15.25129 4.07663,29.56645 11.20459,41.90048 l 0,0.0106 0.0106,0 c 0,0 0.46503,0.76338 0.93371,1.52791 0.23435,0.38226 0.47292,0.76343 0.64724,1.05042 0.0471,0.0776 0.069,0.12949 0.10611,0.19099 l 0,0.0106 0.0955,0.14854 c 0.0151,0.0253 0.0218,0.0359 0.0318,0.0531 0.003,0.004 0.009,0.007 0.0106,0.0106 6.4e-4,0.002 -6.3e-4,0.009 0,0.0106 0.002,0.003 0.009,0.008 0.0106,0.0106 0.005,0.009 0.0137,0.0163 0.0106,0.0106 l 0.0318,0.0531 c 14.90404,23.3979 41.0739,38.95079 70.83505,38.95079 29.76298,0 55.9421,-15.55041 70.84567,-38.95079 l 0.011,-0.0106 c 0,0 0.467,-0.77805 0.9337,-1.54912 0.2334,-0.38554 0.463,-0.76524 0.6366,-1.05043 0.087,-0.1426 0.1632,-0.26 0.2122,-0.33953 0.017,-0.0281 0.021,-0.0465 0.032,-0.0637 0,0.007 -0.01,0.0159 -0.021,0.0318 -0.014,0.016 -0.1061,0.0956 -0.1061,0.0955 10e-5,-6e-5 -0.9867,-0.18041 -0.9867,-0.18038 0,4e-5 -0.074,-0.54125 -0.074,-0.54113 l 1.2415,0.52003 c 7.1278,-12.33379 11.2152,-26.6489 11.2152,-41.90048 0,-45.68562 -36.63058,-82.90479 -82.08207,-83.89646 -0.004,-8e-5 -0.007,8e-5 -0.0106,0 -0.023,-0.003 -0.0299,6.4e-4 -0.0424,0 -0.006,-3e-4 -0.0149,2.7e-4 -0.0212,0 -0.0375,-0.002 -0.0764,-0.01 -0.12733,-0.0106 -0.10193,-0.002 -0.24522,6.4e-4 -0.4138,0 -0.33718,-0.001 -0.78091,-0.001 -1.23081,0 z m 0,1.35814 c 0.44848,-0.001 0.89939,-0.001 1.2308,0 l 0.0743,0 0.45624,0.0106 c 44.75098,0.94834 80.80883,37.56083 80.80883,82.53832 0,14.99558 -4.0127,29.06255 -11.0136,41.18959 -0.01,0.0155 -0.013,0.0191 -0.021,0.0318 -0.016,0.0255 -0.038,0.0642 -0.064,0.10611 -0.052,0.0838 -0.1248,0.1959 -0.2122,0.33953 -0.1749,0.28725 -0.4136,0.675 -0.6472,1.06104 -0.4636,0.76586 -0.9157,1.52616 -0.9231,1.53851 -10e-5,1e-4 -0.011,0.0106 -0.011,0.0106 -14.66435,23.01569 -40.4043,38.30356 -69.68916,38.30356 -29.25765,0 -54.97545,-15.25983 -69.64668,-38.2399 -0.0111,-0.024 -0.0163,-0.0333 -0.0212,-0.0424 -0.007,-0.0132 -0.0155,-0.0218 -0.0213,-0.0318 -0.003,-0.004 -0.008,-0.006 -0.0106,-0.0106 -0.0169,-0.0295 -0.0373,-0.0726 -0.0637,-0.11672 -0.0526,-0.0882 -0.12409,-0.20506 -0.2122,-0.35014 -0.17625,-0.29015 -0.41242,-0.67799 -0.64724,-1.06104 -0.46966,-0.7661 -0.93372,-1.5279 -0.93372,-1.5279 l -0.0106,0 c -7.00518,-12.12961 -11.00299,-26.19921 -11.00299,-41.20019 0,-44.97347 36.03173,-81.58355 80.777,-82.53833 0,0 0.0106,0 0.0106,0 0.0105,-6e-5 0.90149,-0.008 1.79316,-0.0106 z m -1.1247,5.52802 -0.70029,0.0212 c -0.024,6.4e-4 -0.0811,-0.003 -0.18038,0 -41.65482,1.05309 -75.03677,35.09043 -75.03677,76.9997 0,14.01107 3.73662,27.14881 10.26026,38.46271 l 0.33953,0.59419 0.58358,-0.33954 64.39453,-37.17885 0.33954,-0.2016 0,-0.39258 0,-77.26496 0,-0.70028 z m 2.21757,0 0,0.70029 0,77.26495 0,0.39259 0.33954,0.2016 64.39456,37.17885 0.5942,0.33953 0.3395,-0.59418 c 6.5235,-11.31365 10.2603,-24.45133 10.2603,-38.46271 0,-41.97227 -33.4859,-76.04418 -75.22781,-76.9997 l -0.70029,-0.0212 z m -3.5757,1.40057 0,76.17209 -63.43961,36.63772 c -6.20157,-10.98052 -9.76156,-23.66 -9.76156,-37.18946 0,-41.01651 32.50631,-74.32079 73.20117,-75.62035 z m 4.93383,0.0106 c 40.69663,1.29784 73.21177,34.59225 73.21177,75.60973 0,13.5289 -3.5597,26.20884 -9.7615,37.18947 l -63.45027,-36.63772 0,-76.16148 z m -2.46161,78.87774 -0.33953,0.20159 -64.32027,37.13642 -0.6154,0.36075 0.38197,0.59418 c 13.68571,21.34599 37.62682,35.47058 64.89323,35.47058 27.26642,0 51.2076,-14.12471 64.89328,-35.47058 l 0.3819,-0.59418 -0.6154,-0.36075 -64.32025,-37.13642 -0.33953,-0.20159 z m 0,1.57034 63.34408,36.57406 c -13.5052,20.63648 -36.80098,34.26099 -63.34408,34.26099 -26.54277,0 -49.8387,-13.62506 -63.34411,-34.26099 l 63.34411,-36.57406 z"
           id="path2985-90"
           inkscape:connector-curvature="0" />
      </g>
      <path
         sodipodi:nodetypes="csccsccsccccccsccscccccscc"
         inkscape:connector-curvature="0"
         id="path2985-6-3"
         d="m 370.25252,442.94685 c -45.11281,0.95687 -81.45924,37.8846 -81.45924,83.22455 0,15.13037 4.04142,29.31928 11.11165,41.55343 0,0 1.88019,3.05286 1.87319,3.06967 14.78374,23.20905 40.74445,38.63087 70.26913,38.63087 29.52656,0 55.48587,-15.41936 70.26914,-38.63087 0,0 1.8725,-3.10294 1.86338,-3.06967 7.07022,-12.23415 11.12144,-26.42306 11.12144,-41.55343 0,-45.34049 -36.35547,-82.26852 -81.46904,-83.22455 0.0276,-0.0226 -3.57965,0 -3.57965,0 z m -0.18634,6.89452 c 0.0617,-0.002 0.12465,0.002 0.18634,0 l 0,77.27153 -64.39457,37.17938 c -6.46598,-11.21388 -10.16034,-24.23021 -10.16034,-38.12088 0,-41.5489 33.0741,-75.28605 74.36857,-76.33003 z m 3.76599,0 c 41.38105,0.94726 74.56472,34.71879 74.56472,76.33003 0,13.89067 -3.70417,26.907 -10.17014,38.12088 L 373.83217,527.1129 z m -1.78492,80.38043 64.31612,37.14016 c -13.56497,21.15767 -37.28419,35.15908 -64.31612,35.15908 -27.03193,0 -50.76095,-14.00141 -64.32592,-35.15908 z"
         style="font-size:medium;font-style:normal;font-variant:normal;font-weight:normal;font-stretch:normal;text-indent:0;text-align:start;text-decoration:none;line-height:normal;letter-spacing:normal;word-spacing:normal;text-transform:none;direction:ltr;block-progression:tb;writing-mode:lr-tb;text-anchor:start;baseline-shift:baseline;color:#000000;fill:#1a1a1a;fill-opacity:1;stroke:none;stroke-width:4;marker:none;visibility:visible;display:inline;overflow:visible;enable-background:accumulate;font-family:Sans;-inkscape-font-specification:Sans" />
    </g>
    <g
       id="g5086"
       transform="translate(-5.0957299,16.036655)">
      <path
         transform="matrix(0.35852777,0,0,0.35852777,177.99508,-153.91003)"
         d="m 794.70911,923.53564 c 0,132.13376 -107.11555,239.24926 -239.24927,239.24926 -132.13372,0 -239.24927,-107.1155 -239.24927,-239.24926 0,-132.13372 107.11555,-239.24926 239.24927,-239.24926 132.13372,0 239.24927,107.11554 239.24927,239.24926 z"
         sodipodi:ry="239.24927"
         sodipodi:rx="239.24927"
         sodipodi:cy="923.53564"
         sodipodi:cx="555.45984"
         id="path4396-5-5"
         style="fill:url(#linearGradient5276);fill-opacity:1;stroke:#a9a9a9;stroke-width:3.17819858;stroke-miterlimit:4;stroke-opacity:1;stroke-dasharray:none"
         sodipodi:type="arc" />
      <g
         transform="matrix(0.63632867,0,0,0.63632867,38.784263,-361.08966)"
         id="g4060">
        <path
           style="fill:#ff0000;fill-opacity:1;stroke:none"
           d="m 431.46402,904.56573 c -31.47389,-55.28929 -12.79588,-125.98741 41.71848,-157.90868 17.32669,-10.14578 36.98136,-15.4871 56.98852,-15.4871 l 0,115.5972 z"
           id="path3820-4-0-9-7-3"
           inkscape:connector-curvature="0" />
        <path
           style="fill:url(#radialGradient5278);fill-opacity:1;stroke:none"
           d="m 429.34178,904.93962 c -31.47389,-55.28929 -12.79588,-125.98741 41.71848,-157.90869 17.32669,-10.14578 36.98136,-15.48709 56.98852,-15.48709 l 0,115.59719 z"
           id="path3820-4-0-9-9-2-2"
           inkscape:connector-curvature="0" />
        <path
           style="fill:url(#radialGradient5280);fill-opacity:1;stroke:none"
           d="m 533.65797,733.93927 c 63.61887,0.38747 115.50627,51.91219 115.89361,115.08357 0.12323,20.0783 -5.07841,39.7704 -15.08199,57.0971 l -100.11004,-57.7986 z"
           id="path3820-4-0-9-9-2-2-9-4"
           inkscape:connector-curvature="0" />
        <path
           style="fill:url(#radialGradient5282);fill-opacity:1;stroke:none"
           d="M 629.79467,912.39289 C 597.64968,967.29474 527.0843,986.46816 472.18248,955.21798 454.73264,945.28552 440.2796,930.93472 430.27602,913.60801 L 530.38611,855.80944 z"
           id="path3820-4-0-9-9-2-2-9"
           inkscape:connector-curvature="0" />
        <path
           inkscape:connector-curvature="0"
           style="font-size:medium;font-style:normal;font-variant:normal;font-weight:normal;font-stretch:normal;text-indent:0;text-align:start;text-decoration:none;line-height:normal;letter-spacing:normal;word-spacing:normal;text-transform:none;direction:ltr;block-progression:tb;writing-mode:lr-tb;text-anchor:start;baseline-shift:baseline;color:#000000;fill:url(#linearGradient5284);fill-opacity:1;fill-rule:nonzero;stroke:#19a710;stroke-width:4.53543854;stroke-miterlimit:4;stroke-opacity:1;stroke-dasharray:none;marker:none;visibility:visible;display:inline;overflow:visible;enable-background:accumulate;font-family:Sans;-inkscape-font-specification:Sans"
           d="m 530.15114,721.67477 c -21.65321,0 -42.92709,5.78893 -61.67931,16.76944 -58.90454,34.49197 -79.17102,111.15692 -45.16246,170.89877 a 9.3809687,9.514317 0 0 0 0.0175,0.0178 9.3809687,9.514317 0 0 0 1.15847,3.48918 c 10.8266,19.01876 26.41022,34.80616 45.16245,45.78663 58.90455,34.49205 134.49498,13.95526 168.50354,-45.78663 a 9.3809687,9.514317 0 0 0 0.82496,-1.92261 9.3809687,9.514317 0 0 0 1.14091,-1.58437 c 10.82662,-19.01876 16.53442,-40.59507 16.53441,-62.55607 0,-68.98396 -55.34151,-125.11215 -123.35863,-125.11215 a 9.3809687,9.514317 0 0 0 -1.52706,0.14242 9.3809687,9.514317 0 0 0 -0.0175,0 9.3809687,9.514317 0 0 0 -1.59728,-0.14242 z m -9.39056,19.51094 0,100.10039 -85.48044,50.0769 c -22.63386,-49.3535 -4.81861,-108.70635 42.5647,-136.45198 13.18096,-7.71822 27.83172,-12.34713 42.91574,-13.72531 z m 21.90546,0 c 53.45679,4.79911 95.22205,50.11173 95.22205,105.6012 10e-6,15.43636 -3.37645,30.62046 -9.74161,44.55829 l -85.48044,-50.0591 0,-100.10039 z m -11.33888,120.09199 85.48044,50.0591 c -30.82649,44.55268 -90.40531,58.57755 -137.78675,30.83299 -13.17925,-7.71717 -24.45576,-18.27541 -33.17413,-30.83299 l 85.48044,-50.0591 z"
           id="path3820-4-2-6-9-6" />
        <path
           style="font-size:medium;font-style:normal;font-variant:normal;font-weight:normal;font-stretch:normal;text-indent:0;text-align:start;text-decoration:none;line-height:normal;letter-spacing:normal;word-spacing:normal;text-transform:none;direction:ltr;block-progression:tb;writing-mode:lr-tb;text-anchor:start;baseline-shift:baseline;color:#000000;fill:url(#linearGradient5286);fill-opacity:1;fill-rule:nonzero;stroke:none;stroke-width:4;marker:none;visibility:visible;display:inline;overflow:visible;enable-background:accumulate;font-family:Sans;-inkscape-font-specification:Sans"
           d="m 531.74386,714.04952 c -1.41402,0.004 -2.83465,0.0167 -2.83465,0.0167 l -0.0166,0 c -71.46528,1.51583 -129.05992,60.02181 -129.05992,131.84454 0,23.96763 6.40649,46.46412 17.60818,65.84723 l 0,0.0167 0.0166,0 c 0,0 0.73079,1.19966 1.46734,2.40112 0.36828,0.60073 0.74319,1.19975 1.01714,1.65076 0.0741,0.12193 0.10844,0.20349 0.16675,0.30014 l 0,0.0167 0.15007,0.23344 c 0.0237,0.0398 0.0342,0.0565 0.05,0.0834 0.004,0.006 0.0135,0.0112 0.0167,0.0167 10e-4,0.003 -10e-4,0.0142 0,0.0167 0.003,0.005 0.0144,0.0127 0.0166,0.0167 0.008,0.0134 0.0215,0.0257 0.0167,0.0166 l 0.05,0.0834 c 23.42193,36.77015 64.54825,61.21175 111.31834,61.21175 46.77296,0 87.91385,-24.43771 111.33502,-61.21175 l 0.0167,-0.0167 c 0,0 0.73395,-1.22271 1.46735,-2.43446 0.3667,-0.60588 0.72759,-1.20258 1.00046,-1.65077 0.13644,-0.22409 0.25646,-0.40859 0.33349,-0.53358 0.0273,-0.0442 0.0332,-0.0731 0.05,-0.10005 -0.008,0.011 -0.0114,0.0249 -0.0334,0.05 -0.022,0.0251 -0.16687,0.15016 -0.16675,0.15007 1.3e-4,-10e-5 -1.55075,-0.28352 -1.55072,-0.28347 4e-5,6e-5 -0.11666,-0.85059 -0.11672,-0.85039 l 1.9511,0.81723 c 11.20146,-19.38274 17.62484,-41.87914 17.62484,-65.84723 0,-71.79564 -57.56551,-130.28612 -128.99321,-131.84454 -0.006,-1.2e-4 -0.0111,1.2e-4 -0.0167,0 -0.0362,-0.004 -0.047,10e-4 -0.0667,0 -0.01,-4.7e-4 -0.0235,4.3e-4 -0.0333,0 -0.059,-0.003 -0.12,-0.0154 -0.2001,-0.0167 -0.16019,-0.003 -0.38536,10e-4 -0.6503,0 -0.52988,-0.002 -1.22721,-0.002 -1.93423,0 z m 0,2.13433 c 0.70479,-0.002 1.41341,-0.002 1.93423,0 l 0.11672,0 0.717,0.0167 c 70.32682,1.49033 126.99229,59.02741 126.99229,129.71021 0,23.56578 -6.30603,45.67223 -17.30804,64.73005 -0.0162,0.0243 -0.0207,0.03 -0.0333,0.05 -0.0253,0.04 -0.0595,0.1009 -0.10005,0.16674 -0.0811,0.13168 -0.19606,0.30787 -0.33349,0.53358 -0.27484,0.45142 -0.64996,1.06077 -1.01714,1.66744 -0.72844,1.20357 -1.43896,2.39839 -1.45067,2.41779 -10e-5,1.6e-4 -0.0167,0.0167 -0.0167,0.0167 -23.0452,36.16949 -63.49591,60.19461 -109.51751,60.19461 -45.97884,0 -86.39474,-23.98105 -109.4508,-60.09457 -0.0175,-0.0378 -0.0257,-0.0523 -0.0333,-0.0667 -0.0111,-0.0206 -0.0243,-0.0341 -0.0334,-0.05 -0.004,-0.006 -0.013,-0.0102 -0.0166,-0.0167 -0.0266,-0.0463 -0.0587,-0.11409 -0.10005,-0.18342 -0.0827,-0.13864 -0.195,-0.32226 -0.33348,-0.55025 -0.27697,-0.45598 -0.64811,-1.06547 -1.01714,-1.66744 -0.73808,-1.20395 -1.46735,-2.40112 -1.46735,-2.40112 l -0.0166,0 c -11.00874,-19.06187 -17.29136,-41.17245 -17.29136,-64.74672 0,-70.67647 56.6244,-128.20976 126.94226,-129.71021 0,0 0.0166,0 0.0166,0 0.0165,-1e-4 1.4167,-0.0123 2.81798,-0.0167 z m -1.76748,8.68737 -1.10052,0.0333 c -0.0378,10e-4 -0.12744,-0.004 -0.28346,0 -65.46118,1.65495 -117.92141,55.14513 -117.92141,121.00618 0,22.0186 5.87215,42.66476 16.12415,60.44472 l 0.53358,0.93377 0.9171,-0.53358 101.19697,-58.42712 0.53359,-0.31682 0,-0.61695 0,-121.42303 0,-1.10051 z m 3.48495,0 0,1.10051 0,121.42303 0,0.61695 0.53358,0.31682 101.19697,58.42712 0.93377,0.53358 0.53358,-0.93377 c 10.25178,-17.77956 16.12415,-38.42562 16.12415,-60.44472 0,-65.96004 -52.6235,-119.50456 -118.22154,-121.00618 l -1.10051,-0.0333 z m -5.61928,2.20102 0,119.70557 -99.69628,57.57672 c -9.74586,-17.25605 -15.34045,-37.18204 -15.34045,-58.44379 0,-64.45805 51.08416,-116.79622 115.03673,-118.8385 z m 7.7536,0.0166 c 63.95536,2.03958 115.05341,54.36225 115.05341,118.82183 0,21.26086 -5.5942,41.18757 -15.34045,58.4438 l -99.71296,-57.57673 0,-119.6889 z m -3.86846,123.95755 -0.53358,0.31681 -101.08026,58.36043 -0.96711,0.56693 0.60027,0.93376 c 21.5073,33.54554 59.1311,55.74255 101.98068,55.74255 42.84958,0 80.4735,-22.1972 101.98067,-55.74255 l 0.60028,-0.93376 -0.96711,-0.56693 -101.08026,-58.36043 -0.53358,-0.31681 z m 0,2.46781 99.54621,57.47668 c -21.22367,32.43054 -57.83334,53.84166 -99.54621,53.84166 -41.71236,0 -78.32226,-21.41198 -99.54621,-53.84166 l 99.54621,-57.47668 z"
           id="path2985-90-6"
           inkscape:connector-curvature="0" />
      </g>
      <path
         sodipodi:nodetypes="csccsccsccccccsccscccccscc"
         inkscape:connector-curvature="0"
         id="path2985-6-3-2"
         d="m 375.34813,93.968911 c -45.11281,0.956867 -81.45924,37.884589 -81.45924,83.224539 0,15.13037 4.04142,29.31928 11.11165,41.55343 0,0 1.88019,3.05286 1.87319,3.06968 14.78374,23.20904 40.74445,38.63086 70.26913,38.63086 29.52656,0 55.48587,-15.41936 70.26914,-38.63086 0,0 1.8725,-3.10295 1.86338,-3.06968 7.07022,-12.23415 11.12144,-26.42306 11.12144,-41.55343 0,-45.34048 -36.35547,-82.268512 -81.46904,-83.224539 0.0276,-0.02259 -3.57965,0 -3.57965,0 z m -0.18634,6.894509 c 0.0617,-0.002 0.12465,0.002 0.18634,0 l 0,77.27153 -64.39457,37.17939 c -6.46598,-11.21388 -10.16034,-24.23022 -10.16034,-38.12089 0,-41.54889 33.0741,-75.28605 74.36857,-76.33003 z m 3.76599,0 c 41.38105,0.94726 74.56472,34.7188 74.56472,76.33003 0,13.89067 -3.70417,26.90701 -10.17014,38.12089 l -64.39458,-37.17939 z m -1.78492,80.38044 64.31612,37.14015 c -13.56497,21.15767 -37.28419,35.15908 -64.31612,35.15908 -27.03193,0 -50.76095,-14.00141 -64.32592,-35.15908 z"
         style="font-size:medium;font-style:normal;font-variant:normal;font-weight:normal;font-stretch:normal;text-indent:0;text-align:start;text-decoration:none;line-height:normal;letter-spacing:normal;word-spacing:normal;text-transform:none;direction:ltr;block-progression:tb;writing-mode:lr-tb;text-anchor:start;baseline-shift:baseline;color:#000000;fill:#1a1a1a;fill-opacity:1;stroke:none;stroke-width:4;marker:none;visibility:visible;display:inline;overflow:visible;enable-background:accumulate;font-family:Sans;-inkscape-font-specification:Sans" />
    </g>
    <g
       id="g5075"
       transform="translate(-4.5603261,0)">
      <path
         transform="matrix(0.35852777,0,0,0.35852777,177.45979,78.01935)"
         d="m 794.70911,923.53564 c 0,132.13376 -107.11555,239.24926 -239.24927,239.24926 -132.13372,0 -239.24927,-107.1155 -239.24927,-239.24926 0,-132.13372 107.11555,-239.24926 239.24927,-239.24926 132.13372,0 239.24927,107.11554 239.24927,239.24926 z"
         sodipodi:ry="239.24927"
         sodipodi:rx="239.24927"
         sodipodi:cy="923.53564"
         sodipodi:cx="555.45984"
         id="path4396-5-5-2"
         style="fill:url(#linearGradient5014);fill-opacity:1;stroke:#a9a9a9;stroke-width:3.17819858;stroke-miterlimit:4;stroke-opacity:1;stroke-dasharray:none"
         sodipodi:type="arc" />
      <g
         transform="translate(-205.06761,-7.6032)"
         id="g4985">
        <path
           style="fill:#ff0000;fill-opacity:1;stroke:none"
           d="m 517.86963,454.04399 c -20.02774,-35.18216 -8.14239,-80.1694 26.54666,-100.48182 11.02547,-6.45605 23.5323,-9.85489 36.26343,-9.85489 l 0,73.55781 z"
           id="path3820-4-0-9-7-3-6"
           inkscape:connector-curvature="0" />
        <path
           style="fill:url(#radialGradient5016);fill-opacity:1;stroke:none"
           d="m 516.51918,454.2819 c -20.02773,-35.18216 -8.14238,-80.1694 26.54667,-100.48182 11.02547,-6.45605 23.5323,-9.85488 36.26343,-9.85488 l 0,73.5578 z"
           id="path3820-4-0-9-9-2-2-8"
           inkscape:connector-curvature="0" />
        <path
           style="fill:url(#radialGradient5018);fill-opacity:1;stroke:none"
           d="m 645.38051,457.55055 c -20.45478,34.9356 -65.35754,47.1362 -100.29314,27.25081 -11.10386,-6.32029 -20.30073,-15.45212 -26.66629,-26.47761 L 582.124,421.54484 z"
           id="path3820-4-0-9-9-2-2-8-5"
           inkscape:connector-curvature="0" />
        <path
           style="fill:url(#radialGradient5020);fill-opacity:1;stroke:none"
           d="m 584.3613,342.39445 c 40.48252,0.24656 73.49993,33.0332 73.74647,73.231 0.0784,12.77637 -3.23157,25.30701 -9.59713,36.3325 L 584.8077,415.17906 z"
           id="path3820-4-0-9-9-2-2-8-5-3"
           inkscape:connector-curvature="0" />
        <path
           inkscape:connector-curvature="0"
           style="font-size:medium;font-style:normal;font-variant:normal;font-weight:normal;font-stretch:normal;text-indent:0;text-align:start;text-decoration:none;line-height:normal;letter-spacing:normal;word-spacing:normal;text-transform:none;direction:ltr;block-progression:tb;writing-mode:lr-tb;text-anchor:start;baseline-shift:baseline;color:#000000;fill:url(#linearGradient5022);fill-opacity:1;fill-rule:nonzero;stroke:#676767;stroke-width:2.88602948;stroke-miterlimit:4;stroke-opacity:1;stroke-dasharray:none;marker:none;visibility:visible;display:inline;overflow:visible;enable-background:accumulate;font-family:Sans;-inkscape-font-specification:Sans"
           d="m 580.66707,337.66523 c -13.77856,0 -27.31574,3.68366 -39.24831,10.67087 -37.48265,21.94823 -50.37879,70.73234 -28.73817,108.74779 a 5.9693793,6.0542327 0 0 0 0.0111,0.0113 5.9693793,6.0542327 0 0 0 0.73717,2.22026 c 6.88928,12.10218 16.80558,22.14816 28.73816,29.13535 37.48266,21.94828 85.58302,8.88013 107.22364,-29.13535 a 5.9693793,6.0542327 0 0 0 0.52494,-1.22341 5.9693793,6.0542327 0 0 0 0.726,-1.00818 c 6.88929,-12.10218 10.52132,-25.83181 10.52132,-39.80622 0,-43.89647 -35.21539,-79.61245 -78.49664,-79.61245 a 5.9693793,6.0542327 0 0 0 -0.97171,0.0906 5.9693793,6.0542327 0 0 0 -0.0111,0 5.9693793,6.0542327 0 0 0 -1.01639,-0.0906 z m -5.97548,12.41537 0,63.69675 -54.39366,31.86536 c -14.40257,-31.40504 -3.06622,-69.17296 27.08514,-86.8283 8.38742,-4.91133 17.71012,-7.85684 27.30852,-8.73381 z m 13.93907,0 c 34.01609,3.05381 60.59252,31.88753 60.59252,67.19707 1e-5,9.8226 -2.14853,19.48467 -6.19887,28.35372 l -54.39365,-31.85404 0,-63.69675 z m -7.21525,76.41797 54.39365,31.85404 c -19.61578,28.35015 -57.52749,37.27458 -87.67766,19.61992 -8.38633,-4.91066 -15.5619,-11.62917 -21.10965,-19.61992 l 54.39366,-31.85404 z"
           id="path3820-4-2-6-9-6-6" />
        <path
           style="font-size:medium;font-style:normal;font-variant:normal;font-weight:normal;font-stretch:normal;text-indent:0;text-align:start;text-decoration:none;line-height:normal;letter-spacing:normal;word-spacing:normal;text-transform:none;direction:ltr;block-progression:tb;writing-mode:lr-tb;text-anchor:start;baseline-shift:baseline;color:#000000;fill:url(#linearGradient5024);fill-opacity:1;fill-rule:nonzero;stroke:none;stroke-width:4;marker:none;visibility:visible;display:inline;overflow:visible;enable-background:accumulate;font-family:Sans;-inkscape-font-specification:Sans"
           d="m 581.68056,332.81306 c -0.89978,0.003 -1.80377,0.0106 -1.80377,0.0106 l -0.0106,0 c -45.47541,0.96456 -82.12453,38.1936 -82.12453,83.89646 0,15.25129 4.07664,29.56645 11.20459,41.90048 l 0,0.0106 0.0106,0 c 0,0 0.46502,0.76337 0.93371,1.5279 0.23434,0.38226 0.47291,0.76343 0.64723,1.05042 0.0471,0.0776 0.069,0.12949 0.10611,0.19099 l 0,0.0106 0.0955,0.14854 c 0.0151,0.0253 0.0218,0.036 0.0318,0.0531 0.003,0.004 0.009,0.007 0.0106,0.0106 6.3e-4,0.002 -6.4e-4,0.009 0,0.0106 0.002,0.003 0.009,0.008 0.0106,0.0106 0.005,0.009 0.0137,0.0164 0.0106,0.0106 l 0.0318,0.0531 c 14.90405,23.39791 41.07391,38.9508 70.83505,38.9508 29.76298,0 55.94211,-15.55042 70.84567,-38.9508 l 0.0106,-0.0106 c 0,0 0.46703,-0.77805 0.93371,-1.54912 0.23335,-0.38554 0.46299,-0.76523 0.63662,-1.05043 0.0868,-0.1426 0.1632,-0.26 0.21221,-0.33953 0.0174,-0.0281 0.0211,-0.0465 0.0318,-0.0637 -0.005,0.007 -0.007,0.0159 -0.0213,0.0318 -0.014,0.016 -0.10619,0.0956 -0.10611,0.0955 8e-5,-6e-5 -0.98679,-0.18041 -0.98677,-0.18038 3e-5,4e-5 -0.0742,-0.54125 -0.0743,-0.54113 l 1.24154,0.52003 c 7.12781,-12.33379 11.21519,-26.6489 11.21519,-41.90048 0,-45.68562 -36.63058,-82.90479 -82.08208,-83.89646 -0.004,-8e-5 -0.007,8e-5 -0.0106,0 -0.023,-0.003 -0.0299,6.4e-4 -0.0425,0 -0.006,-3e-4 -0.0149,2.7e-4 -0.0212,0 -0.0375,-0.002 -0.0764,-0.01 -0.12733,-0.0106 -0.10193,-0.002 -0.24521,6.4e-4 -0.4138,0 -0.33718,-0.001 -0.78091,-0.001 -1.23081,0 z m 0,1.35814 c 0.44848,-10e-4 0.8994,-10e-4 1.23081,0 l 0.0743,0 0.45625,0.0106 c 44.75097,0.94834 80.80883,37.56084 80.80883,82.53833 0,14.99558 -4.0127,29.06255 -11.0136,41.18959 -0.0103,0.0155 -0.0132,0.0191 -0.0212,0.0318 -0.0161,0.0255 -0.0379,0.0642 -0.0637,0.1061 -0.0516,0.0838 -0.12476,0.19591 -0.21221,0.33954 -0.17489,0.28725 -0.41359,0.67499 -0.64724,1.06104 -0.46352,0.76586 -0.91565,1.52616 -0.9231,1.5385 -6e-5,1.1e-4 -0.0106,0.0106 -0.0106,0.0106 -14.66432,23.01568 -40.40426,38.30356 -69.68913,38.30356 -29.25765,0 -54.97545,-15.25983 -69.64668,-38.2399 -0.0111,-0.024 -0.0163,-0.0333 -0.0212,-0.0424 -0.007,-0.0131 -0.0155,-0.0217 -0.0212,-0.0318 -0.003,-0.004 -0.008,-0.006 -0.0106,-0.0106 -0.0169,-0.0295 -0.0374,-0.0726 -0.0637,-0.11671 -0.0526,-0.0882 -0.12408,-0.20507 -0.2122,-0.35014 -0.17625,-0.29016 -0.41241,-0.67799 -0.64724,-1.06104 -0.46966,-0.76611 -0.93372,-1.5279 -0.93372,-1.5279 l -0.0106,0 c -7.00518,-12.12962 -11.00299,-26.19921 -11.00299,-41.2002 0,-44.97346 36.03173,-81.58354 80.777,-82.53832 0,0 0.0106,0 0.0106,0 0.0105,-7e-5 0.90148,-0.008 1.79316,-0.0106 z m -1.12469,5.52802 -0.7003,0.0212 c -0.024,6.4e-4 -0.0811,-0.003 -0.18037,0 -41.65483,1.05309 -75.03678,35.09043 -75.03678,76.9997 0,14.01107 3.73662,27.14881 10.26026,38.46271 l 0.33954,0.59418 0.58357,-0.33953 64.39454,-37.17885 0.33954,-0.2016 0,-0.39258 0,-77.26496 0,-0.70029 z m 2.21757,0 0,0.70029 0,77.26495 0,0.39258 0.33953,0.20161 64.39453,37.17885 0.59419,0.33953 0.33953,-0.59419 c 6.5235,-11.31364 10.26026,-24.45132 10.26026,-38.4627 0,-41.97227 -33.48584,-76.04418 -75.22776,-76.99971 l -0.70028,-0.0212 z m -3.57571,1.40057 0,76.17209 -63.4396,36.63772 c -6.20157,-10.98052 -9.76157,-23.66 -9.76157,-37.18946 0,-41.01651 32.50632,-74.32079 73.20117,-75.62035 z m 4.93384,0.0106 c 40.69663,1.29785 73.21178,34.59226 73.21178,75.60974 0,13.5289 -3.55975,26.20883 -9.76157,37.18947 l -63.45021,-36.63773 0,-76.16148 z m -2.46161,78.87775 -0.33954,0.20159 -64.32026,37.13642 -0.6154,0.36075 0.38197,0.59418 c 13.68571,21.34599 37.62681,35.47058 64.89323,35.47058 27.26641,0 51.20759,-14.12471 64.89322,-35.47058 l 0.38198,-0.59418 -0.6154,-0.36075 -64.32027,-37.13642 -0.33953,-0.20159 z m 0,1.57034 63.3441,36.57406 c -13.50523,20.63648 -36.80101,34.26099 -63.3441,34.26099 -26.54277,0 -49.8387,-13.62506 -63.34411,-34.26099 l 63.34411,-36.57406 z"
           id="path2985-90-6-1"
           inkscape:connector-curvature="0" />
      </g>
      <path
         sodipodi:nodetypes="csccsccsccccccsccscccccscc"
         inkscape:connector-curvature="0"
         id="path2985-6-3-2-8"
         d="m 374.81285,325.89829 c -45.11281,0.95687 -81.45924,37.88459 -81.45924,83.22454 0,15.13037 4.04142,29.31928 11.11165,41.55343 0,0 1.88019,3.05286 1.87319,3.06968 14.78374,23.20904 40.74445,38.63086 70.26913,38.63086 29.52656,0 55.48587,-15.41936 70.26914,-38.63086 0,0 1.8725,-3.10295 1.86338,-3.06968 7.07022,-12.23415 11.12144,-26.42306 11.12144,-41.55343 0,-45.34048 -36.35547,-82.26851 -81.46904,-83.22454 0.0276,-0.0226 -3.57965,0 -3.57965,0 z m -0.18634,6.89451 c 0.0617,-0.002 0.12465,0.002 0.18634,0 l 0,77.27153 -64.39457,37.17939 c -6.46598,-11.21388 -10.16034,-24.23022 -10.16034,-38.12089 0,-41.54889 33.0741,-75.28605 74.36857,-76.33003 z m 3.76599,0 c 41.38105,0.94726 74.56472,34.7188 74.56472,76.33003 0,13.89067 -3.70417,26.90701 -10.17014,38.12089 L 378.3925,410.06433 z m -1.78492,80.38044 64.31612,37.14015 c -13.56497,21.15767 -37.28419,35.15908 -64.31612,35.15908 -27.03193,0 -50.76095,-14.00141 -64.32592,-35.15908 z"
         style="font-size:medium;font-style:normal;font-variant:normal;font-weight:normal;font-stretch:normal;text-indent:0;text-align:start;text-decoration:none;line-height:normal;letter-spacing:normal;word-spacing:normal;text-transform:none;direction:ltr;block-progression:tb;writing-mode:lr-tb;text-anchor:start;baseline-shift:baseline;color:#000000;fill:#1a1a1a;fill-opacity:1;stroke:none;stroke-width:4;marker:none;visibility:visible;display:inline;overflow:visible;enable-background:accumulate;font-family:Sans;-inkscape-font-specification:Sans" />
    </g>
  </g>
</svg>
