<?xml version="1.0" encoding="UTF-8" standalone="no"?>
<!-- Created with Inkscape (http://www.inkscape.org/) -->

<svg
   xmlns:dc="http://purl.org/dc/elements/1.1/"
   xmlns:cc="http://creativecommons.org/ns#"
   xmlns:rdf="http://www.w3.org/1999/02/22-rdf-syntax-ns#"
   xmlns:svg="http://www.w3.org/2000/svg"
   xmlns="http://www.w3.org/2000/svg"
   xmlns:xlink="http://www.w3.org/1999/xlink"
   xmlns:sodipodi="http://sodipodi.sourceforge.net/DTD/sodipodi-0.dtd"
   xmlns:inkscape="http://www.inkscape.org/namespaces/inkscape"
   width="744.09448819"
   height="1052.3622047"
   id="svg2"
   version="1.1"
   inkscape:version="0.48.2 r9819"
   sodipodi:docname="processo.svg"
   inkscape:export-filename="D:\Java\infnet\SoSim\processo.png"
   inkscape:export-xdpi="90"
   inkscape:export-ydpi="90">
  <defs
     id="defs4">
    <linearGradient
       inkscape:collect="always"
       id="linearGradient4117">
      <stop
         style="stop-color:#ffffff;stop-opacity:1;"
         offset="0"
         id="stop4119" />
      <stop
         style="stop-color:#ffffff;stop-opacity:0;"
         offset="1"
         id="stop4121" />
    </linearGradient>
    <inkscape:perspective
       sodipodi:type="inkscape:persp3d"
       inkscape:vp_x="22.857143 : 577.60967 : 1"
       inkscape:vp_y="0 : 1000 : 0"
       inkscape:vp_z="766.95163 : 577.60967 : 1"
       inkscape:persp3d-origin="394.90439 : 402.21597 : 1"
       id="perspective2985" />
    <linearGradient
       inkscape:collect="always"
       xlink:href="#linearGradient4117-8"
       id="linearGradient4165-8"
       gradientUnits="userSpaceOnUse"
       gradientTransform="translate(42.755848,11.102884)"
       x1="254.83081"
       y1="340.06146"
       x2="254.17213"
       y2="383.30017" />
    <linearGradient
       inkscape:collect="always"
       id="linearGradient4117-8">
      <stop
         style="stop-color:#ffffff;stop-opacity:1;"
         offset="0"
         id="stop4119-2" />
      <stop
         style="stop-color:#ffffff;stop-opacity:0;"
         offset="1"
         id="stop4121-7" />
    </linearGradient>
    <linearGradient
       inkscape:collect="always"
       xlink:href="#linearGradient4117-0"
       id="linearGradient4165-6"
       gradientUnits="userSpaceOnUse"
       gradientTransform="translate(42.755848,11.102884)"
       x1="254.83081"
       y1="340.06146"
       x2="254.17213"
       y2="383.30017" />
    <linearGradient
       inkscape:collect="always"
       id="linearGradient4117-0">
      <stop
         style="stop-color:#ffffff;stop-opacity:1;"
         offset="0"
         id="stop4119-3" />
      <stop
         style="stop-color:#ffffff;stop-opacity:0;"
         offset="1"
         id="stop4121-6" />
    </linearGradient>
    <linearGradient
       inkscape:collect="always"
       xlink:href="#linearGradient4117-9"
       id="linearGradient4165-4"
       gradientUnits="userSpaceOnUse"
       gradientTransform="translate(42.755848,11.102884)"
       x1="254.83081"
       y1="340.06146"
       x2="254.17213"
       y2="383.30017" />
    <linearGradient
       inkscape:collect="always"
       id="linearGradient4117-9">
      <stop
         style="stop-color:#ffffff;stop-opacity:1;"
         offset="0"
         id="stop4119-8" />
      <stop
         style="stop-color:#ffffff;stop-opacity:0;"
         offset="1"
         id="stop4121-2" />
    </linearGradient>
    <linearGradient
       inkscape:collect="always"
       xlink:href="#linearGradient4117-86"
       id="linearGradient4165-9"
       gradientUnits="userSpaceOnUse"
       gradientTransform="translate(42.755848,11.102884)"
       x1="254.83081"
       y1="340.06146"
       x2="254.17213"
       y2="383.30017" />
    <linearGradient
       inkscape:collect="always"
       id="linearGradient4117-86">
      <stop
         style="stop-color:#ffffff;stop-opacity:1;"
         offset="0"
         id="stop4119-6" />
      <stop
         style="stop-color:#ffffff;stop-opacity:0;"
         offset="1"
         id="stop4121-23" />
    </linearGradient>
    <linearGradient
       inkscape:collect="always"
       xlink:href="#linearGradient4117-8"
       id="linearGradient4514"
       gradientUnits="userSpaceOnUse"
       gradientTransform="translate(-130.44036,119.19008)"
       x1="254.83081"
       y1="340.06146"
       x2="254.17213"
       y2="383.30017" />
    <linearGradient
       inkscape:collect="always"
       xlink:href="#linearGradient4117-9"
       id="linearGradient4516"
       gradientUnits="userSpaceOnUse"
       gradientTransform="translate(199.1548,-299.67487)"
       x1="254.83081"
       y1="340.06146"
       x2="254.17213"
       y2="383.30017" />
    <linearGradient
       inkscape:collect="always"
       xlink:href="#linearGradient4117-86"
       id="linearGradient4518"
       gradientUnits="userSpaceOnUse"
       gradientTransform="translate(-128.57275,-114.13906)"
       x1="254.83081"
       y1="340.06146"
       x2="254.17213"
       y2="383.30017" />
    <linearGradient
       inkscape:collect="always"
       xlink:href="#linearGradient4117"
       id="linearGradient4520"
       gradientUnits="userSpaceOnUse"
       gradientTransform="translate(42.755848,11.102884)"
       x1="254.83081"
       y1="340.06146"
       x2="254.17213"
       y2="383.30017" />
  </defs>
  <sodipodi:namedview
     id="base"
     pagecolor="#ffffff"
     bordercolor="#666666"
     borderopacity="1.0"
     inkscape:pageopacity="0.0"
     inkscape:pageshadow="2"
     inkscape:zoom="0.59770297"
     inkscape:cx="372.04724"
     inkscape:cy="520.6873"
     inkscape:document-units="px"
     inkscape:current-layer="layer1"
     showgrid="false"
     showguides="true"
     inkscape:guide-bbox="true"
     inkscape:window-width="1440"
     inkscape:window-height="851"
     inkscape:window-x="-4"
     inkscape:window-y="-4"
     inkscape:window-maximized="1" />
  <metadata
     id="metadata7">
    <rdf:RDF>
      <cc:Work
         rdf:about="">
        <dc:format>image/svg+xml</dc:format>
        <dc:type
           rdf:resource="http://purl.org/dc/dcmitype/StillImage" />
        <dc:title></dc:title>
      </cc:Work>
    </rdf:RDF>
  </metadata>
  <g
     inkscape:label="Layer 1"
     inkscape:groupmode="layer"
     id="layer1">
    <g
       id="g4470"
       transform="translate(196.47187,7.999992)">
      <g
         transform="translate(-164.92801,-151.11326)"
         id="g4157">
        <path
           style="font-size:medium;font-style:normal;font-variant:normal;font-weight:normal;font-stretch:normal;text-indent:0;text-align:start;text-decoration:none;line-height:normal;letter-spacing:normal;word-spacing:normal;text-transform:none;direction:ltr;block-progression:tb;writing-mode:lr-tb;text-anchor:start;baseline-shift:baseline;color:#000000;fill:#cccccc;fill-opacity:1;fill-rule:nonzero;stroke:none;stroke-width:20;marker:none;visibility:visible;display:inline;overflow:visible;enable-background:accumulate;font-family:Sans;-inkscape-font-specification:Sans"
           d="m 245.7634,328.73709 a 10.108154,9.8945418 0 0 0 -7.7067,3.49366 l -46.49286,53.70344 a 10.108154,9.8945418 0 0 0 0,12.79978 l 46.49286,53.70344 a 10.108154,9.8945418 0 0 0 7.7067,3.49366 l 69.13918,0 52.14654,0 69.13918,0 a 10.108154,9.8945418 0 0 0 7.7067,-3.49366 l 46.49286,-53.70344 a 10.108154,9.8945418 0 0 0 0,-12.79978 L 443.895,332.23075 a 10.108154,9.8945418 0 0 0 -7.7067,-3.49366 l -69.13918,0 -52.14654,0 -69.13918,0 z m 4.67455,19.7871 64.46463,0 52.14654,0 64.46463,0 37.93337,43.80989 -37.93337,43.80989 -64.46463,0 -52.14654,0 -64.46463,0 -37.93337,-43.80989 37.93337,-43.80989 z"
           id="rect3043-6"
           inkscape:connector-curvature="0" />
        <path
           style="font-size:medium;font-style:normal;font-variant:normal;font-weight:normal;font-stretch:normal;text-indent:0;text-align:start;text-decoration:none;line-height:normal;letter-spacing:normal;word-spacing:normal;text-transform:none;direction:ltr;block-progression:tb;writing-mode:lr-tb;text-anchor:start;baseline-shift:baseline;color:#000000;fill:#535353;fill-opacity:1;fill-rule:nonzero;stroke:none;stroke-width:1.82049537;marker:none;visibility:visible;display:inline;overflow:visible;enable-background:accumulate;font-family:Sans;-inkscape-font-specification:Sans"
           d="m 340,328.21875 c -48.90286,0.0975 -73.39871,0.15488 -85.96875,0.375 -6.28502,0.11006 -9.56862,0.26855 -11.5,0.5 -0.96569,0.11572 -1.61954,0.25098 -2.125,0.4375 -0.50546,0.18652 -0.85074,0.42849 -1.125,0.625 -0.30696,0.21994 -0.55056,0.47814 -1,0.9375 -0.44944,0.45936 -1.04328,1.05277 -1.75,1.8125 -1.41343,1.51946 -3.30623,3.62314 -5.53125,6.09375 -4.45005,4.94122 -10.19776,11.43879 -16,18.03125 -5.80224,6.59246 -11.63713,13.269 -16.25,18.625 -4.61287,5.356 -7.96603,9.2972 -8.9375,10.65625 -1.74707,2.44407 -2.44468,5.00282 -1.96875,7.625 0.47593,2.62218 2.06409,5.22201 4.6875,8 0.54383,0.57587 1.04306,1.11326 1.4375,1.5 0.19722,0.19337 0.36273,0.34644 0.5,0.46875 0.0686,0.0612 0.14932,0.1033 0.21875,0.15625 0.0347,0.0265 0.0626,0.0567 0.125,0.0937 0.0624,0.0371 0.0842,0.15625 0.5,0.15625 3.4e-4,0 0.40563,-0.12468 0.40625,-0.125 6.2e-4,-3.2e-4 0.10225,-0.0461 0.125,-0.0625 0.0455,-0.0327 0.0466,-0.0484 0.0625,-0.0625 0.0318,-0.0281 0.0453,-0.0453 0.0625,-0.0625 0.0343,-0.0344 0.0837,-0.0496 0.125,-0.0937 0.0825,-0.0883 0.20017,-0.21576 0.34375,-0.375 0.28715,-0.31847 0.68973,-0.77726 1.21875,-1.375 1.05804,-1.19547 2.57134,-2.93227 4.4375,-5.0625 3.73232,-4.26047 8.85,-10.13087 14.46875,-16.59375 5.61576,-6.45946 11.01979,-12.58103 15.1875,-17.25 2.08385,-2.33449 3.87719,-4.32027 5.21875,-5.78125 1.34156,-1.46098 2.28605,-2.43963 2.53125,-2.65625 1.46693,-1.29591 3.77165,-3.58933 5.1875,-5.15625 0.64602,-0.71494 1.43722,-1.42771 2.15625,-1.96875 0.71903,-0.54104 1.40783,-0.89337 1.59375,-0.9375 -0.15287,0.0363 -0.0326,0.006 0.0625,0 0.0951,-0.006 0.25536,-0.0249 0.4375,-0.0312 0.36428,-0.0127 0.86188,-0.0194 1.53125,-0.0312 1.33874,-0.0237 3.27858,-0.0433 5.71875,-0.0625 4.88034,-0.0383 11.84142,-0.0756 20.34375,-0.0937 17.00465,-0.0364 40.20417,-0.0263 65.53125,0.0312 l 91.71875,0.21875 5.28125,5.15625 c 2.9251,2.86761 14.05044,15.26251 24.53125,27.375 12.1832,14.07993 17.5604,20.41615 20.25,23.0625 0.6724,0.66159 1.15415,1.11342 1.625,1.40625 0.47085,0.29283 1.04873,0.47086 1.59375,0.28125 0.54502,-0.18961 0.78875,-0.5667 0.96875,-0.84375 0.18,-0.27705 0.32307,-0.53616 0.5,-0.75 2.49065,-3.01015 4.01258,-5.73078 4.5625,-8.34375 0.54992,-2.61297 0.0363,-5.08288 -1.4375,-7.375 -0.47768,-0.74292 -1.5141,-2.05676 -3.0625,-3.9375 -1.5484,-1.88074 -3.55566,-4.28744 -5.90625,-7.03125 -4.70118,-5.48762 -10.70283,-12.36393 -16.65625,-19.09375 -5.95342,-6.72982 -11.88458,-13.33514 -16.46875,-18.34375 -2.29209,-2.50431 -4.2246,-4.60202 -5.6875,-6.125 -0.73145,-0.76149 -1.34145,-1.35822 -1.8125,-1.8125 -0.47105,-0.45428 -0.67888,-0.69982 -1.125,-0.9375 -0.7206,-0.38392 -1.69812,-0.66167 -4.0625,-0.84375 -2.36438,-0.18208 -6.22185,-0.30033 -12.875,-0.375 -13.30629,-0.14934 -37.83577,-0.12332 -84,-0.0312 z m 0,1.8125 c 46.16372,-0.0921 70.72156,-0.11777 84,0.0312 6.63922,0.0745 10.44565,0.19995 12.71875,0.375 2.2731,0.17505 2.92572,0.38563 3.375,0.625 -0.15634,-0.0833 0.24577,0.19899 0.6875,0.625 0.44173,0.42601 1.059,1.06059 1.78125,1.8125 1.4445,1.50382 3.36977,3.59557 5.65625,6.09375 4.57296,4.99637 10.52046,11.58849 16.46875,18.3125 5.94829,6.72401 11.9021,13.58601 16.59375,19.0625 2.34582,2.73825 4.37048,5.1346 5.90625,7 1.53577,1.8654 2.59995,3.22502 2.9375,3.75 1.26352,1.96511 1.64674,3.84913 1.1875,6.03125 -0.45924,2.18212 -1.80552,4.68368 -4.1875,7.5625 -0.30036,0.36302 -0.49393,0.70452 -0.625,0.90625 -0.13107,0.20173 -0.18339,0.17793 -0.0312,0.125 0.15214,-0.0529 0.22062,0.0316 -0.0312,-0.125 -0.25187,-0.15664 -0.71556,-0.50691 -1.34375,-1.125 -2.51276,-2.47235 -7.93853,-8.88504 -20.125,-22.96875 -10.49493,-12.12881 -21.51205,-24.41759 -24.65625,-27.5 l -5.5,-5.40625 a 0.91033871,0.91033871 0 0 0 -0.625,-0.25 L 342.0625,344.75 c -25.32932,-0.0576 -48.55386,-0.0676 -65.5625,-0.0312 -8.50432,0.0182 -15.45701,0.0554 -20.34375,0.0937 -2.44337,0.0192 -4.36869,0.0386 -5.71875,0.0625 -0.67503,0.012 -1.17917,0.0179 -1.5625,0.0312 -0.19167,0.007 -0.34526,0.0236 -0.46875,0.0312 -0.12349,0.008 -0.16275,-0.0191 -0.375,0.0312 -0.76407,0.18134 -1.49488,0.66602 -2.3125,1.28125 -0.81762,0.61523 -1.67079,1.37357 -2.40625,2.1875 -1.34709,1.49082 -3.62377,3.78421 -5,5 -0.46558,0.4113 -1.3363,1.34102 -2.6875,2.8125 -1.3512,1.47148 -3.13128,3.44271 -5.21875,5.78125 -4.17494,4.67707 -9.59826,10.81634 -15.21875,17.28125 -5.61751,6.46147 -10.73872,12.33589 -14.46875,16.59375 -1.86502,2.12893 -3.38331,3.84012 -4.4375,5.03125 -0.45117,0.50977 -0.7595,0.88472 -1.03125,1.1875 -0.37009,-0.36287 -0.87602,-0.84478 -1.40625,-1.40625 -2.48435,-2.63074 -3.83412,-4.97459 -4.21875,-7.09375 -0.38463,-2.11916 0.14401,-4.09072 1.6875,-6.25 0.77604,-1.08566 4.20607,-5.18274 8.8125,-10.53125 4.60643,-5.34851 10.45123,-12.03647 16.25,-18.625 5.79877,-6.58853 11.55742,-13.06707 16,-18 2.22129,-2.46646 4.0986,-4.55597 5.5,-6.0625 0.7007,-0.75326 1.28795,-1.37219 1.71875,-1.8125 0.4308,-0.44031 0.78342,-0.74269 0.75,-0.71875 0.26853,-0.19241 0.38338,-0.29403 0.6875,-0.40625 0.30412,-0.11222 0.83043,-0.2373 1.71875,-0.34375 1.77663,-0.2129 5.04582,-0.35901 11.3125,-0.46875 12.53337,-0.21948 37.03467,-0.27747 85.9375,-0.375 z"
           id="path4097"
           inkscape:connector-curvature="0" />
        <path
           style="font-size:medium;font-style:normal;font-variant:normal;font-weight:normal;font-stretch:normal;text-indent:0;text-align:start;text-decoration:none;line-height:normal;letter-spacing:normal;word-spacing:normal;text-transform:none;direction:ltr;block-progression:tb;writing-mode:lr-tb;text-anchor:start;baseline-shift:baseline;color:#000000;fill:#1a1a1a;fill-opacity:1;fill-rule:nonzero;stroke:none;stroke-width:20;marker:none;visibility:visible;display:inline;overflow:visible;enable-background:accumulate;font-family:Sans;-inkscape-font-specification:Sans"
           d="m 246.37011,332.15625 a 10.001,10.001 0 0 0 -7.625,3.53125 l -46,54.28125 a 10.001,10.001 0 0 0 0,12.9375 l 46,54.28125 a 10.001,10.001 0 0 0 7.625,3.53125 l 68.40625,0 51.59375,0 68.40625,0 a 10.001,10.001 0 0 0 7.625,-3.53125 l 46,-54.28125 a 10.001,10.001 0 0 0 0,-12.9375 l -46,-54.28125 a 10.001,10.001 0 0 0 -7.625,-3.53125 l -68.40625,0 -51.59375,0 -68.40625,0 z m 4.625,20 63.78125,0 51.59375,0 63.78125,0 37.53125,44.28125 -37.53125,44.28125 -63.78125,0 -51.59375,0 -63.78125,0 -37.53125,-44.28125 37.53125,-44.28125 z"
           id="rect3043"
           inkscape:connector-curvature="0" />
        <path
           style="font-size:medium;font-style:normal;font-variant:normal;font-weight:normal;font-stretch:normal;text-indent:0;text-align:start;text-decoration:none;line-height:normal;letter-spacing:normal;word-spacing:normal;text-transform:none;direction:ltr;block-progression:tb;writing-mode:lr-tb;text-anchor:start;baseline-shift:baseline;color:#000000;fill:#1a5a1a;fill-opacity:1;fill-rule:nonzero;stroke:none;stroke-width:7.0999999;marker:none;visibility:visible;display:inline;overflow:visible;enable-background:accumulate;font-family:Sans;-inkscape-font-specification:Sans"
           d="m 250.08886,345.59375 c -1.03446,0.003 -2.05761,0.48563 -2.71875,1.28125 l -39.21875,46.28125 c -1.06125,1.26558 -1.06125,3.29692 0,4.5625 L 247.37011,444 c 0.66114,0.79562 1.68429,1.27779 2.71875,1.28125 l 180.96875,0 c 1.03446,-0.003 2.05761,-0.48563 2.71875,-1.28125 l 39.21875,-46.28125 c 1.06125,-1.26558 1.06125,-3.29692 0,-4.5625 L 433.77636,346.875 c -0.66114,-0.79562 -1.68429,-1.27779 -2.71875,-1.28125 z"
           id="path4045"
           inkscape:connector-curvature="0"
           sodipodi:nodetypes="ccccccccccccc" />
        <path
           style="fill:#8aff00;fill-opacity:1;stroke:#1aba1a;stroke-width:1.51923132;stroke-linecap:round;stroke-linejoin:round;stroke-miterlimit:4;stroke-opacity:1;stroke-dasharray:none;marker-start:none"
           d="m 219.91007,391.15625 c 11.87889,14.01531 23.75777,28.03061 35.63666,42.04591 56.68434,0 113.36867,0 170.05301,0 11.87889,-14.0153 23.75777,-28.0306 35.63666,-42.04591 -11.87889,-14.01531 -23.75777,-28.03061 -35.63666,-42.04591 -56.68434,0 -113.36867,0 -170.05301,0 -11.87889,14.0153 -23.75777,28.0306 -35.63666,42.04591 z"
           id="path4045-2"
           inkscape:connector-curvature="0" />
        <path
           style="fill:url(#linearGradient4520);fill-opacity:1;stroke:#1aba1a;stroke-width:0;stroke-linecap:round;stroke-linejoin:round;stroke-miterlimit:4;stroke-opacity:1;stroke-dasharray:none;marker-start:none"
           d="m 220.21215,392.88591 c 11.87889,14.01531 23.75777,28.03061 35.63666,42.04591 56.68434,0 113.36867,0 170.05301,0 11.87889,-14.0153 23.75777,-28.0306 35.63666,-42.04591 C 449.65959,378.8706 437.78071,364.8553 425.90182,350.84 c -56.68434,0 -113.36867,0 -170.05301,0 -11.87889,14.0153 -23.75777,28.0306 -35.63666,42.04591 z"
           id="path4045-2-1"
           inkscape:connector-curvature="0" />
      </g>
      <text
         sodipodi:linespacing="125%"
         id="text4437"
         y="341.59515"
         x="187.82695"
         style="font-size:40px;font-style:normal;font-variant:normal;font-weight:bold;font-stretch:normal;text-align:start;line-height:125%;letter-spacing:0px;word-spacing:0px;writing-mode:lr-tb;text-anchor:start;fill:#000000;fill-opacity:1;stroke:none;font-family:Franklin Gothic Medium;-inkscape-font-specification:'Franklin Gothic Medium, Bold'"
         xml:space="preserve"><tspan
           y="341.59515"
           x="187.82695"
           id="tspan4439"
           sodipodi:role="line">Ativo</tspan></text>
    </g>
    <g
       id="g4481"
       transform="translate(201.49108,-21.955833)">
      <g
         transform="translate(1.3813773,223.85465)"
         id="g4415">
        <path
           style="font-size:medium;font-style:normal;font-variant:normal;font-weight:normal;font-stretch:normal;text-indent:0;text-align:start;text-decoration:none;line-height:normal;letter-spacing:normal;word-spacing:normal;text-transform:none;direction:ltr;block-progression:tb;writing-mode:lr-tb;text-anchor:start;baseline-shift:baseline;color:#000000;fill:#cccccc;fill-opacity:1;fill-rule:nonzero;stroke:none;stroke-width:20;marker:none;visibility:visible;display:inline;overflow:visible;enable-background:accumulate;font-family:Sans;-inkscape-font-specification:Sans"
           d="m 74.4348,203.49515 a 10.108154,9.8945418 0 0 0 -7.7067,3.49366 l -46.49286,53.70344 a 10.108154,9.8945418 0 0 0 0,12.79978 l 46.49286,53.70344 a 10.108154,9.8945418 0 0 0 7.7067,3.49366 l 69.13918,0 52.14654,0 69.13918,0 a 10.108154,9.8945418 0 0 0 7.7067,-3.49366 l 46.49286,-53.70344 a 10.108154,9.8945418 0 0 0 0,-12.79978 L 272.5664,206.98881 a 10.108154,9.8945418 0 0 0 -7.7067,-3.49366 l -69.13918,0 -52.14654,0 -69.13918,0 z m 4.67455,19.7871 64.46463,0 52.14654,0 64.46463,0 37.93337,43.80989 -37.93337,43.80989 -64.46463,0 -52.14654,0 -64.46463,0 -37.93337,-43.80989 37.93337,-43.80989 z"
           id="rect3043-6-2"
           inkscape:connector-curvature="0" />
        <path
           style="font-size:medium;font-style:normal;font-variant:normal;font-weight:normal;font-stretch:normal;text-indent:0;text-align:start;text-decoration:none;line-height:normal;letter-spacing:normal;word-spacing:normal;text-transform:none;direction:ltr;block-progression:tb;writing-mode:lr-tb;text-anchor:start;baseline-shift:baseline;color:#000000;fill:#535353;fill-opacity:1;fill-rule:nonzero;stroke:none;stroke-width:1.82049537;marker:none;visibility:visible;display:inline;overflow:visible;enable-background:accumulate;font-family:Sans;-inkscape-font-specification:Sans"
           d="m 168.6714,202.97681 c -48.90286,0.0975 -73.39871,0.15488 -85.96875,0.375 -6.28502,0.11006 -9.56862,0.26855 -11.5,0.5 -0.96569,0.11572 -1.61954,0.25098 -2.125,0.4375 -0.50546,0.18652 -0.85074,0.42849 -1.125,0.625 -0.30696,0.21994 -0.55056,0.47814 -1,0.9375 -0.44944,0.45936 -1.04328,1.05277 -1.75,1.8125 -1.41343,1.51946 -3.30623,3.62314 -5.53125,6.09375 -4.45005,4.94122 -10.19776,11.43879 -16,18.03125 -5.80224,6.59246 -11.63713,13.269 -16.25,18.625 -4.61287,5.356 -7.96603,9.2972 -8.9375,10.65625 -1.74707,2.44407 -2.44468,5.00282 -1.96875,7.625 0.47593,2.62218 2.06409,5.22201 4.6875,8 0.54383,0.57587 1.04306,1.11326 1.4375,1.5 0.19722,0.19337 0.36273,0.34644 0.5,0.46875 0.0686,0.0612 0.14932,0.1033 0.21875,0.15625 0.0347,0.0265 0.0626,0.0567 0.125,0.0937 0.0624,0.0371 0.0842,0.15625 0.5,0.15625 3.4e-4,0 0.40563,-0.12468 0.40625,-0.125 6.2e-4,-3.2e-4 0.10225,-0.0461 0.125,-0.0625 0.0455,-0.0327 0.0466,-0.0484 0.0625,-0.0625 0.0318,-0.0281 0.0453,-0.0453 0.0625,-0.0625 0.0343,-0.0344 0.0837,-0.0496 0.125,-0.0937 0.0825,-0.0883 0.20017,-0.21576 0.34375,-0.375 0.28715,-0.31847 0.68973,-0.77726 1.21875,-1.375 1.05804,-1.19547 2.57134,-2.93227 4.4375,-5.0625 3.73232,-4.26047 8.85,-10.13087 14.46875,-16.59375 5.61576,-6.45946 11.01979,-12.58103 15.1875,-17.25 2.08385,-2.33449 3.87719,-4.32027 5.21875,-5.78125 1.34156,-1.46098 2.28605,-2.43963 2.53125,-2.65625 1.46693,-1.29591 3.77165,-3.58933 5.1875,-5.15625 0.64602,-0.71494 1.43722,-1.42771 2.15625,-1.96875 0.71903,-0.54104 1.40783,-0.89337 1.59375,-0.9375 -0.15287,0.0363 -0.0326,0.006 0.0625,0 0.0951,-0.006 0.25536,-0.0249 0.4375,-0.0312 0.36428,-0.0127 0.86188,-0.0194 1.53125,-0.0312 1.33874,-0.0237 3.27858,-0.0433 5.71875,-0.0625 4.88034,-0.0383 11.84142,-0.0756 20.34375,-0.0937 17.00465,-0.0364 40.20417,-0.0263 65.53125,0.0312 l 91.71875,0.21875 5.28125,5.15625 c 2.9251,2.86761 14.05044,15.26251 24.53125,27.375 12.1832,14.07993 17.5604,20.41615 20.25,23.0625 0.6724,0.66159 1.15415,1.11342 1.625,1.40625 0.47085,0.29283 1.04873,0.47086 1.59375,0.28125 0.54502,-0.18961 0.78875,-0.5667 0.96875,-0.84375 0.18,-0.27705 0.32307,-0.53616 0.5,-0.75 2.49065,-3.01015 4.01258,-5.73078 4.5625,-8.34375 0.54992,-2.61297 0.0363,-5.08288 -1.4375,-7.375 -0.47768,-0.74292 -1.5141,-2.05676 -3.0625,-3.9375 -1.5484,-1.88074 -3.55566,-4.28744 -5.90625,-7.03125 -4.70118,-5.48762 -10.70283,-12.36393 -16.65625,-19.09375 -5.95342,-6.72982 -11.88458,-13.33514 -16.46875,-18.34375 -2.29209,-2.50431 -4.2246,-4.60202 -5.6875,-6.125 -0.73145,-0.76149 -1.34145,-1.35822 -1.8125,-1.8125 -0.47105,-0.45428 -0.67888,-0.69982 -1.125,-0.9375 -0.7206,-0.38392 -1.69812,-0.66167 -4.0625,-0.84375 -2.36438,-0.18208 -6.22185,-0.30033 -12.875,-0.375 -13.30629,-0.14934 -37.83577,-0.12332 -84,-0.0312 z m 0,1.8125 c 46.16372,-0.0921 70.72156,-0.11777 84,0.0312 6.63922,0.0745 10.44565,0.19995 12.71875,0.375 2.2731,0.17505 2.92572,0.38563 3.375,0.625 -0.15634,-0.0833 0.24577,0.19899 0.6875,0.625 0.44173,0.42601 1.059,1.06059 1.78125,1.8125 1.4445,1.50382 3.36977,3.59557 5.65625,6.09375 4.57296,4.99637 10.52046,11.58849 16.46875,18.3125 5.94829,6.72401 11.9021,13.58601 16.59375,19.0625 2.34582,2.73825 4.37048,5.1346 5.90625,7 1.53577,1.8654 2.59995,3.22502 2.9375,3.75 1.26352,1.96511 1.64674,3.84913 1.1875,6.03125 -0.45924,2.18212 -1.80552,4.68368 -4.1875,7.5625 -0.30036,0.36302 -0.49393,0.70452 -0.625,0.90625 -0.13107,0.20173 -0.18339,0.17793 -0.0312,0.125 0.15214,-0.0529 0.22062,0.0316 -0.0312,-0.125 -0.25187,-0.15664 -0.71556,-0.50691 -1.34375,-1.125 -2.51276,-2.47235 -7.93853,-8.88504 -20.125,-22.96875 -10.49493,-12.12881 -21.51205,-24.41759 -24.65625,-27.5 l -5.5,-5.40625 a 0.91033871,0.91033871 0 0 0 -0.625,-0.25 l -92.1251,-0.2187 c -25.32932,-0.0576 -48.55386,-0.0676 -65.5625,-0.0312 -8.50432,0.0182 -15.45701,0.0554 -20.34375,0.0937 -2.44337,0.0192 -4.36869,0.0386 -5.71875,0.0625 -0.67503,0.012 -1.17917,0.0179 -1.5625,0.0312 -0.19167,0.007 -0.34526,0.0236 -0.46875,0.0312 -0.12349,0.008 -0.16275,-0.0191 -0.375,0.0312 -0.76407,0.18134 -1.49488,0.66602 -2.3125,1.28125 -0.81762,0.61523 -1.67079,1.37357 -2.40625,2.1875 -1.34709,1.49082 -3.62377,3.78421 -5,5 -0.46558,0.4113 -1.3363,1.34102 -2.6875,2.8125 -1.3512,1.47148 -3.13128,3.44271 -5.21875,5.78125 -4.17494,4.67707 -9.59826,10.81634 -15.21875,17.28125 -5.61751,6.46147 -10.73872,12.33589 -14.46875,16.59375 -1.86502,2.12893 -3.38331,3.84012 -4.4375,5.03125 -0.45117,0.50977 -0.7595,0.88472 -1.03125,1.1875 -0.37009,-0.36287 -0.87602,-0.84478 -1.40625,-1.40625 -2.48435,-2.63074 -3.83412,-4.97459 -4.21875,-7.09375 -0.38463,-2.11916 0.14401,-4.09072 1.6875,-6.25 0.77604,-1.08566 4.20607,-5.18274 8.8125,-10.53125 4.60643,-5.34851 10.45123,-12.03647 16.25,-18.625 5.79877,-6.58853 11.55742,-13.06707 16,-18 2.22129,-2.46646 4.0986,-4.55597 5.5,-6.0625 0.7007,-0.75326 1.28795,-1.37219 1.71875,-1.8125 0.4308,-0.44031 0.78342,-0.74269 0.75,-0.71875 0.26853,-0.19241 0.38338,-0.29403 0.6875,-0.40625 0.30412,-0.11222 0.83043,-0.2373 1.71875,-0.34375 1.77663,-0.2129 5.04582,-0.35901 11.3125,-0.46875 12.53337,-0.21948 37.03467,-0.27747 85.9375,-0.375 z"
           id="path4097-6"
           inkscape:connector-curvature="0" />
        <path
           style="font-size:medium;font-style:normal;font-variant:normal;font-weight:normal;font-stretch:normal;text-indent:0;text-align:start;text-decoration:none;line-height:normal;letter-spacing:normal;word-spacing:normal;text-transform:none;direction:ltr;block-progression:tb;writing-mode:lr-tb;text-anchor:start;baseline-shift:baseline;color:#000000;fill:#1a1a1a;fill-opacity:1;fill-rule:nonzero;stroke:none;stroke-width:20;marker:none;visibility:visible;display:inline;overflow:visible;enable-background:accumulate;font-family:Sans;-inkscape-font-specification:Sans"
           d="m 75.04151,206.91431 a 10.001,10.001 0 0 0 -7.625,3.53125 l -46,54.28125 a 10.001,10.001 0 0 0 0,12.9375 l 46,54.28125 a 10.001,10.001 0 0 0 7.625,3.53125 l 68.40625,0 51.59375,0 68.40625,0 a 10.001,10.001 0 0 0 7.625,-3.53125 l 46,-54.28125 a 10.001,10.001 0 0 0 0,-12.9375 l -46,-54.28125 a 10.001,10.001 0 0 0 -7.625,-3.53125 l -68.40625,0 -51.59375,0 -68.40625,0 z m 4.625,20 63.78125,0 51.59375,0 63.78125,0 37.53125,44.28125 -37.53125,44.28125 -63.78125,0 -51.59375,0 -63.78125,0 -37.53125,-44.28125 37.53125,-44.28125 z"
           id="rect3043-2"
           inkscape:connector-curvature="0" />
        <path
           style="font-size:medium;font-style:normal;font-variant:normal;font-weight:normal;font-stretch:normal;text-indent:0;text-align:start;text-decoration:none;line-height:normal;letter-spacing:normal;word-spacing:normal;text-transform:none;direction:ltr;block-progression:tb;writing-mode:lr-tb;text-anchor:start;baseline-shift:baseline;color:#000000;fill:#5a3b1a;fill-opacity:1;fill-rule:nonzero;stroke:none;stroke-width:7.0999999;marker:none;visibility:visible;display:inline;overflow:visible;enable-background:accumulate;font-family:Sans;-inkscape-font-specification:Sans"
           d="m 78.76026,220.35181 c -1.03446,0.003 -2.05761,0.48563 -2.71875,1.28125 l -39.21875,46.28125 c -1.06125,1.26558 -1.06125,3.29692 0,4.5625 l 39.21875,46.28125 c 0.66114,0.79562 1.68429,1.27779 2.71875,1.28125 l 180.96875,0 c 1.03446,-0.003 2.05761,-0.48563 2.71875,-1.28125 l 39.21875,-46.28125 c 1.06125,-1.26558 1.06125,-3.29692 0,-4.5625 l -39.21875,-46.28125 c -0.66114,-0.79562 -1.68429,-1.27779 -2.71875,-1.28125 z"
           id="path4045-7"
           inkscape:connector-curvature="0"
           sodipodi:nodetypes="ccccccccccccc" />
        <path
           style="fill:#ffbc00;fill-opacity:1;stroke:#ba671a;stroke-width:1.51923132;stroke-linecap:round;stroke-linejoin:round;stroke-miterlimit:4;stroke-opacity:1;stroke-dasharray:none;marker-start:none"
           d="m 48.58147,265.91431 c 11.87889,14.01531 23.75777,28.03061 35.63666,42.04591 56.68434,0 113.36867,0 170.05301,0 11.87889,-14.0153 23.75777,-28.0306 35.63666,-42.04591 -11.87889,-14.01531 -23.75777,-28.03061 -35.63666,-42.04591 -56.68434,0 -113.36867,0 -170.05301,0 -11.87889,14.0153 -23.75777,28.0306 -35.63666,42.04591 z"
           id="path4045-2-5"
           inkscape:connector-curvature="0" />
        <path
           style="fill:url(#linearGradient4518);fill-opacity:1;stroke:#1aba1a;stroke-width:0;stroke-linecap:round;stroke-linejoin:round;stroke-miterlimit:4;stroke-opacity:1;stroke-dasharray:none;marker-start:none"
           d="m 48.88355,267.64397 c 11.87889,14.01531 23.75777,28.03061 35.63666,42.04591 56.68434,0 113.36867,0 170.05301,0 11.87889,-14.0153 23.75777,-28.0306 35.63666,-42.04591 -11.87889,-14.01531 -23.75777,-28.03061 -35.63666,-42.04591 -56.68434,0 -113.36867,0 -170.05301,0 -11.87889,14.0153 -23.75777,28.0306 -35.63666,42.04591 z"
           id="path4045-2-1-7"
           inkscape:connector-curvature="0" />
      </g>
      <text
         sodipodi:linespacing="125%"
         id="text4437-8"
         y="592.31104"
         x="152.81593"
         style="font-size:40px;font-style:normal;font-variant:normal;font-weight:bold;font-stretch:normal;text-align:start;line-height:125%;letter-spacing:0px;word-spacing:0px;writing-mode:lr-tb;text-anchor:start;fill:#000000;fill-opacity:1;stroke:none;font-family:Franklin Gothic Medium;-inkscape-font-specification:'Franklin Gothic Medium, Bold'"
         xml:space="preserve"><tspan
           y="592.31104"
           x="152.81593"
           id="tspan4439-2"
           sodipodi:role="line">Espera</tspan></text>
    </g>
    <g
       id="g4492"
       transform="translate(193.12572,2.607414)">
      <g
         transform="translate(-317.98081,611.61304)"
         id="g4347">
        <path
           style="font-size:medium;font-style:normal;font-variant:normal;font-weight:normal;font-stretch:normal;text-indent:0;text-align:start;text-decoration:none;line-height:normal;letter-spacing:normal;word-spacing:normal;text-transform:none;direction:ltr;block-progression:tb;writing-mode:lr-tb;text-anchor:start;baseline-shift:baseline;color:#000000;fill:#cccccc;fill-opacity:1;fill-rule:nonzero;stroke:none;stroke-width:20;marker:none;visibility:visible;display:inline;overflow:visible;enable-background:accumulate;font-family:Sans;-inkscape-font-specification:Sans"
           d="m 402.16235,17.95934 a 10.108154,9.8945418 0 0 0 -7.7067,3.49366 l -46.49286,53.70344 a 10.108154,9.8945418 0 0 0 0,12.79978 l 46.49286,53.70344 a 10.108154,9.8945418 0 0 0 7.7067,3.49366 l 69.13918,0 52.14654,0 69.13918,0 a 10.108154,9.8945418 0 0 0 7.7067,-3.49366 l 46.49286,-53.70344 a 10.108154,9.8945418 0 0 0 0,-12.79978 L 600.29395,21.453 a 10.108154,9.8945418 0 0 0 -7.7067,-3.49366 l -69.13918,0 -52.14654,0 -69.13918,0 z m 4.67455,19.7871 64.46463,0 52.14654,0 64.46463,0 37.93337,43.80989 -37.93337,43.80989 -64.46463,0 -52.14654,0 -64.46463,0 -37.93337,-43.80989 37.93337,-43.80989 z"
           id="rect3043-6-5"
           inkscape:connector-curvature="0" />
        <path
           style="font-size:medium;font-style:normal;font-variant:normal;font-weight:normal;font-stretch:normal;text-indent:0;text-align:start;text-decoration:none;line-height:normal;letter-spacing:normal;word-spacing:normal;text-transform:none;direction:ltr;block-progression:tb;writing-mode:lr-tb;text-anchor:start;baseline-shift:baseline;color:#000000;fill:#535353;fill-opacity:1;fill-rule:nonzero;stroke:none;stroke-width:1.82049537;marker:none;visibility:visible;display:inline;overflow:visible;enable-background:accumulate;font-family:Sans;-inkscape-font-specification:Sans"
           d="m 496.39895,17.441 c -48.90286,0.0975 -73.39871,0.15488 -85.96875,0.375 -6.28502,0.11006 -9.56862,0.26855 -11.5,0.5 -0.96569,0.11572 -1.61954,0.25098 -2.125,0.4375 -0.50546,0.18652 -0.85074,0.42849 -1.125,0.625 -0.30696,0.21994 -0.55056,0.47814 -1,0.9375 -0.44944,0.45936 -1.04328,1.05277 -1.75,1.8125 -1.41343,1.51946 -3.30623,3.62314 -5.53125,6.09375 -4.45005,4.94122 -10.19776,11.43879 -16,18.03125 -5.80224,6.59246 -11.63713,13.269 -16.25,18.625 -4.61287,5.356 -7.96603,9.2972 -8.9375,10.65625 -1.74707,2.44407 -2.44468,5.00282 -1.96875,7.625 0.47593,2.62218 2.06409,5.22201 4.6875,8 0.54383,0.57587 1.04306,1.11326 1.4375,1.5 0.19722,0.19337 0.36273,0.34644 0.5,0.46875 0.0686,0.0612 0.14932,0.1033 0.21875,0.15625 0.0347,0.0265 0.0626,0.0567 0.125,0.0937 0.0624,0.0371 0.0842,0.15625 0.5,0.15625 3.4e-4,0 0.40563,-0.12468 0.40625,-0.125 6.2e-4,-3.2e-4 0.10225,-0.0461 0.125,-0.0625 0.0455,-0.0327 0.0466,-0.0484 0.0625,-0.0625 0.0318,-0.0281 0.0453,-0.0453 0.0625,-0.0625 0.0343,-0.0344 0.0837,-0.0496 0.125,-0.0937 0.0825,-0.0883 0.20017,-0.21576 0.34375,-0.375 0.28715,-0.31847 0.68973,-0.77726 1.21875,-1.375 1.05804,-1.19547 2.57134,-2.93227 4.4375,-5.0625 3.73232,-4.26047 8.85,-10.13087 14.46875,-16.59375 5.61576,-6.45946 11.01979,-12.58103 15.1875,-17.25 2.08385,-2.33449 3.87719,-4.32027 5.21875,-5.78125 1.34156,-1.46098 2.28605,-2.43963 2.53125,-2.65625 1.46693,-1.29591 3.77165,-3.58933 5.1875,-5.15625 0.64602,-0.71494 1.43722,-1.42771 2.15625,-1.96875 0.71903,-0.54104 1.40783,-0.89337 1.59375,-0.9375 -0.15287,0.0363 -0.0326,0.006 0.0625,0 0.0951,-0.006 0.25536,-0.0249 0.4375,-0.0312 0.36428,-0.0127 0.86188,-0.0194 1.53125,-0.0312 1.33874,-0.0237 3.27858,-0.0433 5.71875,-0.0625 4.88034,-0.0383 11.84142,-0.0756 20.34375,-0.0937 17.00465,-0.0364 40.20417,-0.0263 65.53125,0.0312 l 91.71875,0.21875 5.28125,5.15625 c 2.9251,2.86761 14.05044,15.26251 24.53125,27.375 12.1832,14.07993 17.5604,20.41615 20.25,23.0625 0.6724,0.66159 1.15415,1.11342 1.625,1.40625 0.47085,0.29283 1.04873,0.47086 1.59375,0.28125 0.54502,-0.18961 0.78875,-0.5667 0.96875,-0.84375 0.18,-0.27705 0.32307,-0.53616 0.5,-0.75 2.49065,-3.01015 4.01258,-5.73078 4.5625,-8.34375 0.54992,-2.61297 0.0363,-5.08288 -1.4375,-7.375 -0.47768,-0.74292 -1.5141,-2.05676 -3.0625,-3.9375 -1.5484,-1.88074 -3.55566,-4.28744 -5.90625,-7.03125 -4.70118,-5.48762 -10.70283,-12.36393 -16.65625,-19.09375 -5.95342,-6.72982 -11.88458,-13.33514 -16.46875,-18.34375 -2.29209,-2.50431 -4.2246,-4.60202 -5.6875,-6.125 -0.73145,-0.76149 -1.34145,-1.35822 -1.8125,-1.8125 -0.47105,-0.45428 -0.67888,-0.69982 -1.125,-0.9375 -0.7206,-0.38392 -1.69812,-0.66167 -4.0625,-0.84375 -2.36438,-0.18208 -6.22185,-0.30033 -12.875,-0.375 -13.30629,-0.14934 -37.83577,-0.12332 -84,-0.0312 z m 0,1.8125 c 46.16372,-0.0921 70.72156,-0.11777 84,0.0312 6.63922,0.0745 10.44565,0.19995 12.71875,0.375 2.2731,0.17505 2.92572,0.38563 3.375,0.625 -0.15634,-0.0833 0.24577,0.19899 0.6875,0.625 0.44173,0.42601 1.059,1.06059 1.78125,1.8125 1.4445,1.50382 3.36977,3.59557 5.65625,6.09375 4.57296,4.99637 10.52046,11.58849 16.46875,18.3125 5.94829,6.72401 11.9021,13.58601 16.59375,19.0625 2.34582,2.73825 4.37048,5.1346 5.90625,7 1.53577,1.8654 2.59995,3.22502 2.9375,3.75 1.26352,1.96511 1.64674,3.84913 1.1875,6.03125 -0.45924,2.18212 -1.80552,4.68368 -4.1875,7.5625 -0.30036,0.36302 -0.49393,0.70452 -0.625,0.90625 -0.13107,0.20173 -0.18339,0.17793 -0.0312,0.125 0.15214,-0.0529 0.22062,0.0316 -0.0312,-0.125 -0.25187,-0.15664 -0.71556,-0.50691 -1.34375,-1.125 -2.51276,-2.47235 -7.93853,-8.88504 -20.125,-22.96875 -10.49493,-12.12881 -21.51205,-24.41759 -24.65625,-27.5 l -5.5,-5.40625 a 0.91033871,0.91033871 0 0 0 -0.625,-0.25 l -92.1251,-0.2187 c -25.32932,-0.0576 -48.55386,-0.0676 -65.5625,-0.0312 -8.50432,0.0182 -15.45701,0.0554 -20.34375,0.0937 -2.44337,0.0192 -4.36869,0.0386 -5.71875,0.0625 -0.67503,0.012 -1.17917,0.0179 -1.5625,0.0312 -0.19167,0.007 -0.34526,0.0236 -0.46875,0.0312 -0.12349,0.008 -0.16275,-0.0191 -0.375,0.0312 -0.76407,0.18134 -1.49488,0.66602 -2.3125,1.28125 -0.81762,0.61523 -1.67079,1.37357 -2.40625,2.1875 -1.34709,1.49082 -3.62377,3.78421 -5,5 -0.46558,0.4113 -1.3363,1.34102 -2.6875,2.8125 -1.3512,1.47148 -3.13128,3.44271 -5.21875,5.78125 -4.17494,4.67707 -9.59826,10.81634 -15.21875,17.28125 -5.61751,6.46147 -10.73872,12.33589 -14.46875,16.59375 -1.86502,2.12893 -3.38331,3.84012 -4.4375,5.03125 -0.45117,0.50977 -0.7595,0.88472 -1.03125,1.1875 -0.37009,-0.36287 -0.87602,-0.84478 -1.40625,-1.40625 -2.48435,-2.63074 -3.83412,-4.97459 -4.21875,-7.09375 -0.38463,-2.11916 0.14401,-4.09072 1.6875,-6.25 0.77604,-1.08566 4.20607,-5.18274 8.8125,-10.53125 4.60643,-5.34851 10.45123,-12.03647 16.25,-18.625 5.79877,-6.58853 11.55742,-13.06707 16,-18 2.22129,-2.46646 4.0986,-4.55597 5.5,-6.0625 0.7007,-0.75326 1.28795,-1.37219 1.71875,-1.8125 0.4308,-0.44031 0.78342,-0.74269 0.75,-0.71875 0.26853,-0.19241 0.38338,-0.29403 0.6875,-0.40625 0.30412,-0.11222 0.83043,-0.2373 1.71875,-0.34375 1.77663,-0.2129 5.04582,-0.35901 11.3125,-0.46875 12.53337,-0.21948 37.03467,-0.27747 85.9375,-0.375 z"
           id="path4097-29"
           inkscape:connector-curvature="0" />
        <path
           style="font-size:medium;font-style:normal;font-variant:normal;font-weight:normal;font-stretch:normal;text-indent:0;text-align:start;text-decoration:none;line-height:normal;letter-spacing:normal;word-spacing:normal;text-transform:none;direction:ltr;block-progression:tb;writing-mode:lr-tb;text-anchor:start;baseline-shift:baseline;color:#000000;fill:#1a1a1a;fill-opacity:1;fill-rule:nonzero;stroke:none;stroke-width:20;marker:none;visibility:visible;display:inline;overflow:visible;enable-background:accumulate;font-family:Sans;-inkscape-font-specification:Sans"
           d="m 402.76906,21.3785 a 10.001,10.001 0 0 0 -7.625,3.53125 l -46,54.28125 a 10.001,10.001 0 0 0 0,12.9375 l 46,54.28125 a 10.001,10.001 0 0 0 7.625,3.53125 l 68.40625,0 51.59375,0 68.40625,0 a 10.001,10.001 0 0 0 7.625,-3.53125 l 46,-54.28125 a 10.001,10.001 0 0 0 0,-12.9375 l -46,-54.28125 a 10.001,10.001 0 0 0 -7.625,-3.53125 l -68.40625,0 -51.59375,0 -68.40625,0 z m 4.625,20 63.78125,0 51.59375,0 63.78125,0 37.53125,44.28125 -37.53125,44.28125 -63.78125,0 -51.59375,0 -63.78125,0 -37.53125,-44.28125 37.53125,-44.28125 z"
           id="rect3043-9"
           inkscape:connector-curvature="0" />
        <path
           style="font-size:medium;font-style:normal;font-variant:normal;font-weight:normal;font-stretch:normal;text-indent:0;text-align:start;text-decoration:none;line-height:normal;letter-spacing:normal;word-spacing:normal;text-transform:none;direction:ltr;block-progression:tb;writing-mode:lr-tb;text-anchor:start;baseline-shift:baseline;color:#000000;fill:#1a345a;fill-opacity:1;fill-rule:nonzero;stroke:none;stroke-width:7.0999999;marker:none;visibility:visible;display:inline;overflow:visible;enable-background:accumulate;font-family:Sans;-inkscape-font-specification:Sans"
           d="m 406.48781,34.816 c -1.03446,0.003 -2.05761,0.48563 -2.71875,1.28125 L 364.55031,82.3785 c -1.06125,1.26558 -1.06125,3.29692 0,4.5625 l 39.21875,46.28125 c 0.66114,0.79562 1.68429,1.27779 2.71875,1.28125 l 180.96875,0 c 1.03446,-0.003 2.05761,-0.48563 2.71875,-1.28125 L 629.39406,86.941 c 1.06125,-1.26558 1.06125,-3.29692 0,-4.5625 L 590.17531,36.09725 c -0.66114,-0.79562 -1.68429,-1.27779 -2.71875,-1.28125 z"
           id="path4045-83"
           inkscape:connector-curvature="0"
           sodipodi:nodetypes="ccccccccccccc" />
        <path
           style="fill:#0088ff;fill-opacity:1;stroke:#1a4cba;stroke-width:1.51923132;stroke-linecap:round;stroke-linejoin:round;stroke-miterlimit:4;stroke-opacity:1;stroke-dasharray:none;marker-start:none"
           d="m 376.30902,80.3785 c 11.87889,14.01531 23.75777,28.03061 35.63666,42.04591 56.68434,0 113.36867,0 170.05301,0 11.87889,-14.0153 23.75777,-28.0306 35.63666,-42.04591 -11.87889,-14.01531 -23.75777,-28.03061 -35.63666,-42.04591 -56.68434,0 -113.36867,0 -170.05301,0 -11.87889,14.0153 -23.75777,28.0306 -35.63666,42.04591 z"
           id="path4045-2-8"
           inkscape:connector-curvature="0" />
        <path
           style="fill:url(#linearGradient4516);fill-opacity:1;stroke:#1aba1a;stroke-width:0;stroke-linecap:round;stroke-linejoin:round;stroke-miterlimit:4;stroke-opacity:1;stroke-dasharray:none;marker-start:none"
           d="m 376.6111,82.10816 c 11.87889,14.01531 23.75777,28.03061 35.63666,42.04591 56.68434,0 113.36867,0 170.05301,0 11.87889,-14.0153 23.75777,-28.0306 35.63666,-42.04591 -11.87889,-14.01531 -23.75777,-28.03061 -35.63666,-42.04591 -56.68434,0 -113.36867,0 -170.05301,0 -11.87889,14.0153 -23.75777,28.0306 -35.63666,42.04591 z"
           id="path4045-2-1-6"
           inkscape:connector-curvature="0" />
      </g>
      <text
         sodipodi:linespacing="125%"
         id="text4462"
         y="793.72833"
         x="240.92233"
         style="font-size:40px;font-style:normal;font-variant:normal;font-weight:bold;font-stretch:normal;text-align:start;line-height:125%;letter-spacing:0px;word-spacing:0px;writing-mode:lr-tb;text-anchor:start;fill:#000000;fill-opacity:1;stroke:none;font-family:Franklin Gothic Medium;-inkscape-font-specification:'Franklin Gothic Medium, Bold'"
         xml:space="preserve"><tspan
           y="793.72833"
           x="240.92233"
           id="tspan4464"
           sodipodi:role="line">IO</tspan></text>
    </g>
    <g
       id="g4503"
       transform="translate(196.47186,-28.80758)">
      <g
         transform="translate(8.2682028,444.14709)"
         id="g4423">
        <path
           style="font-size:medium;font-style:normal;font-variant:normal;font-weight:normal;font-stretch:normal;text-indent:0;text-align:start;text-decoration:none;line-height:normal;letter-spacing:normal;word-spacing:normal;text-transform:none;direction:ltr;block-progression:tb;writing-mode:lr-tb;text-anchor:start;baseline-shift:baseline;color:#000000;fill:#cccccc;fill-opacity:1;fill-rule:nonzero;stroke:none;stroke-width:20;marker:none;visibility:visible;display:inline;overflow:visible;enable-background:accumulate;font-family:Sans;-inkscape-font-specification:Sans"
           d="m 72.56719,436.82429 a 10.108154,9.8945418 0 0 0 -7.7067,3.49366 l -46.49286,53.70344 a 10.108154,9.8945418 0 0 0 0,12.79978 l 46.49286,53.70344 a 10.108154,9.8945418 0 0 0 7.7067,3.49366 l 69.13918,0 52.14654,0 69.13918,0 a 10.108154,9.8945418 0 0 0 7.7067,-3.49366 l 46.49286,-53.70344 a 10.108154,9.8945418 0 0 0 0,-12.79978 l -46.49286,-53.70344 a 10.108154,9.8945418 0 0 0 -7.7067,-3.49366 l -69.13918,0 -52.14654,0 -69.13918,0 z m 4.67455,19.7871 64.46463,0 52.14654,0 64.46463,0 37.93337,43.80989 -37.93337,43.80989 -64.46463,0 -52.14654,0 -64.46463,0 -37.93337,-43.80989 37.93337,-43.80989 z"
           id="rect3043-6-1"
           inkscape:connector-curvature="0" />
        <path
           style="font-size:medium;font-style:normal;font-variant:normal;font-weight:normal;font-stretch:normal;text-indent:0;text-align:start;text-decoration:none;line-height:normal;letter-spacing:normal;word-spacing:normal;text-transform:none;direction:ltr;block-progression:tb;writing-mode:lr-tb;text-anchor:start;baseline-shift:baseline;color:#000000;fill:#535353;fill-opacity:1;fill-rule:nonzero;stroke:none;stroke-width:1.82049537;marker:none;visibility:visible;display:inline;overflow:visible;enable-background:accumulate;font-family:Sans;-inkscape-font-specification:Sans"
           d="m 166.80379,436.30595 c -48.90286,0.0975 -73.39871,0.15488 -85.96875,0.375 -6.28502,0.11006 -9.56862,0.26855 -11.5,0.5 -0.96569,0.11572 -1.61954,0.25098 -2.125,0.4375 -0.50546,0.18652 -0.85074,0.42849 -1.125,0.625 -0.30696,0.21994 -0.55056,0.47814 -1,0.9375 -0.44944,0.45936 -1.04328,1.05277 -1.75,1.8125 -1.41343,1.51946 -3.30623,3.62314 -5.53125,6.09375 -4.45005,4.94122 -10.19776,11.43879 -16,18.03125 -5.80224,6.59246 -11.63713,13.269 -16.25,18.625 -4.61287,5.356 -7.96603,9.2972 -8.9375,10.65625 -1.74707,2.44407 -2.44468,5.00282 -1.96875,7.625 0.47593,2.62218 2.06409,5.22201 4.6875,8 0.54383,0.57587 1.04306,1.11326 1.4375,1.5 0.19722,0.19337 0.36273,0.34644 0.5,0.46875 0.0686,0.0612 0.14932,0.1033 0.21875,0.15625 0.0347,0.0265 0.0626,0.0567 0.125,0.0937 0.0624,0.0371 0.0842,0.15625 0.5,0.15625 3.4e-4,0 0.40563,-0.12468 0.40625,-0.125 6.2e-4,-3.2e-4 0.10225,-0.0461 0.125,-0.0625 0.0455,-0.0327 0.0466,-0.0484 0.0625,-0.0625 0.0318,-0.0281 0.0453,-0.0453 0.0625,-0.0625 0.0343,-0.0344 0.0837,-0.0496 0.125,-0.0937 0.0825,-0.0883 0.20017,-0.21576 0.34375,-0.375 0.28715,-0.31847 0.68973,-0.77726 1.21875,-1.375 1.05804,-1.19547 2.57134,-2.93227 4.4375,-5.0625 3.73232,-4.26047 8.85,-10.13087 14.46875,-16.59375 5.61576,-6.45946 11.01979,-12.58103 15.1875,-17.25 2.08385,-2.33449 3.87719,-4.32027 5.21875,-5.78125 1.34156,-1.46098 2.28605,-2.43963 2.53125,-2.65625 1.46693,-1.29591 3.77165,-3.58933 5.1875,-5.15625 0.64602,-0.71494 1.43722,-1.42771 2.15625,-1.96875 0.71903,-0.54104 1.40783,-0.89337 1.59375,-0.9375 -0.15287,0.0363 -0.0326,0.006 0.0625,0 0.0951,-0.006 0.25536,-0.0249 0.4375,-0.0312 0.36428,-0.0127 0.86188,-0.0194 1.53125,-0.0312 1.33874,-0.0237 3.27858,-0.0433 5.71875,-0.0625 4.88034,-0.0383 11.84142,-0.0756 20.34375,-0.0937 17.00465,-0.0364 40.20417,-0.0263 65.53125,0.0312 l 91.71875,0.21875 5.28125,5.15625 c 2.9251,2.86761 14.05044,15.26251 24.53125,27.375 12.1832,14.07993 17.5604,20.41615 20.25,23.0625 0.6724,0.66159 1.15415,1.11342 1.625,1.40625 0.47085,0.29283 1.04873,0.47086 1.59375,0.28125 0.54502,-0.18961 0.78875,-0.5667 0.96875,-0.84375 0.18,-0.27705 0.32307,-0.53616 0.5,-0.75 2.49065,-3.01015 4.01258,-5.73078 4.5625,-8.34375 0.54992,-2.61297 0.0363,-5.08288 -1.4375,-7.375 -0.47768,-0.74292 -1.5141,-2.05676 -3.0625,-3.9375 -1.5484,-1.88074 -3.55566,-4.28744 -5.90625,-7.03125 -4.70118,-5.48762 -10.70283,-12.36393 -16.65625,-19.09375 -5.95342,-6.72982 -11.88458,-13.33514 -16.46875,-18.34375 -2.29209,-2.50431 -4.2246,-4.60202 -5.6875,-6.125 -0.73145,-0.76149 -1.34145,-1.35822 -1.8125,-1.8125 -0.47105,-0.45428 -0.67888,-0.69982 -1.125,-0.9375 -0.7206,-0.38392 -1.69812,-0.66167 -4.0625,-0.84375 -2.36438,-0.18208 -6.22185,-0.30033 -12.875,-0.375 -13.30629,-0.14934 -37.83577,-0.12332 -84,-0.0312 z m 0,1.8125 c 46.16372,-0.0921 70.72156,-0.11777 84,0.0312 6.63922,0.0745 10.44565,0.19995 12.71875,0.375 2.2731,0.17505 2.92572,0.38563 3.375,0.625 -0.15634,-0.0833 0.24577,0.19899 0.6875,0.625 0.44173,0.42601 1.059,1.06059 1.78125,1.8125 1.4445,1.50382 3.36977,3.59557 5.65625,6.09375 4.57296,4.99637 10.52046,11.58849 16.46875,18.3125 5.94829,6.72401 11.9021,13.58601 16.59375,19.0625 2.34582,2.73825 4.37048,5.1346 5.90625,7 1.53577,1.8654 2.59995,3.22502 2.9375,3.75 1.26352,1.96511 1.64674,3.84913 1.1875,6.03125 -0.45924,2.18212 -1.80552,4.68368 -4.1875,7.5625 -0.30036,0.36302 -0.49393,0.70452 -0.625,0.90625 -0.13107,0.20173 -0.18339,0.17793 -0.0312,0.125 0.15214,-0.0529 0.22062,0.0316 -0.0312,-0.125 -0.25187,-0.15664 -0.71556,-0.50691 -1.34375,-1.125 -2.51276,-2.47235 -7.93853,-8.88504 -20.125,-22.96875 -10.49493,-12.12881 -21.51205,-24.41759 -24.65625,-27.5 l -5.5,-5.40625 a 0.91033871,0.91033871 0 0 0 -0.625,-0.25 l -92.1251,-0.2187 c -25.32932,-0.0576 -48.55386,-0.0676 -65.5625,-0.0312 -8.50432,0.0182 -15.45701,0.0554 -20.34375,0.0937 -2.44337,0.0192 -4.36869,0.0386 -5.71875,0.0625 -0.67503,0.012 -1.17917,0.0179 -1.5625,0.0312 -0.19167,0.007 -0.34526,0.0236 -0.46875,0.0312 -0.12349,0.008 -0.16275,-0.0191 -0.375,0.0312 -0.76407,0.18134 -1.49488,0.66602 -2.3125,1.28125 -0.81762,0.61523 -1.67079,1.37357 -2.40625,2.1875 -1.34709,1.49082 -3.62377,3.78421 -5,5 -0.46558,0.4113 -1.3363,1.34102 -2.6875,2.8125 -1.3512,1.47148 -3.13128,3.44271 -5.21875,5.78125 -4.17494,4.67707 -9.59826,10.81634 -15.21875,17.28125 -5.61751,6.46147 -10.73872,12.33589 -14.46875,16.59375 -1.86502,2.12893 -3.38331,3.84012 -4.4375,5.03125 -0.45117,0.50977 -0.7595,0.88472 -1.03125,1.1875 -0.37009,-0.36287 -0.87602,-0.84478 -1.40625,-1.40625 -2.48435,-2.63074 -3.83412,-4.97459 -4.21875,-7.09375 -0.38463,-2.11916 0.14401,-4.09072 1.6875,-6.25 0.77604,-1.08566 4.20607,-5.18274 8.8125,-10.53125 4.60643,-5.34851 10.45123,-12.03647 16.25,-18.625 5.79877,-6.58853 11.55742,-13.06707 16,-18 2.22129,-2.46646 4.0986,-4.55597 5.5,-6.0625 0.7007,-0.75326 1.28795,-1.37219 1.71875,-1.8125 0.4308,-0.44031 0.78342,-0.74269 0.75,-0.71875 0.26853,-0.19241 0.38338,-0.29403 0.6875,-0.40625 0.30412,-0.11222 0.83043,-0.2373 1.71875,-0.34375 1.77663,-0.2129 5.04582,-0.35901 11.3125,-0.46875 12.53337,-0.21948 37.03467,-0.27747 85.9375,-0.375 z"
           id="path4097-2"
           inkscape:connector-curvature="0" />
        <path
           style="font-size:medium;font-style:normal;font-variant:normal;font-weight:normal;font-stretch:normal;text-indent:0;text-align:start;text-decoration:none;line-height:normal;letter-spacing:normal;word-spacing:normal;text-transform:none;direction:ltr;block-progression:tb;writing-mode:lr-tb;text-anchor:start;baseline-shift:baseline;color:#000000;fill:#1a1a1a;fill-opacity:1;fill-rule:nonzero;stroke:none;stroke-width:20;marker:none;visibility:visible;display:inline;overflow:visible;enable-background:accumulate;font-family:Sans;-inkscape-font-specification:Sans"
           d="m 73.1739,440.24345 a 10.001,10.001 0 0 0 -7.625,3.53125 l -46,54.28125 a 10.001,10.001 0 0 0 0,12.9375 l 46,54.28125 a 10.001,10.001 0 0 0 7.625,3.53125 l 68.40625,0 51.59375,0 68.40625,0 a 10.001,10.001 0 0 0 7.625,-3.53125 l 46,-54.28125 a 10.001,10.001 0 0 0 0,-12.9375 l -46,-54.28125 a 10.001,10.001 0 0 0 -7.625,-3.53125 l -68.40625,0 -51.59375,0 -68.40625,0 z m 4.625,20 63.78125,0 51.59375,0 63.78125,0 37.53125,44.28125 -37.53125,44.28125 -63.78125,0 -51.59375,0 -63.78125,0 L 40.26765,504.5247 77.7989,460.24345 z"
           id="rect3043-60"
           inkscape:connector-curvature="0" />
        <path
           style="font-size:medium;font-style:normal;font-variant:normal;font-weight:normal;font-stretch:normal;text-indent:0;text-align:start;text-decoration:none;line-height:normal;letter-spacing:normal;word-spacing:normal;text-transform:none;direction:ltr;block-progression:tb;writing-mode:lr-tb;text-anchor:start;baseline-shift:baseline;color:#000000;fill:#800000;fill-opacity:1;fill-rule:nonzero;stroke:none;stroke-width:7.0999999;marker:none;visibility:visible;display:inline;overflow:visible;enable-background:accumulate;font-family:Sans;-inkscape-font-specification:Sans"
           d="m 76.89265,453.68095 c -1.03446,0.003 -2.05761,0.48563 -2.71875,1.28125 l -39.21875,46.28125 c -1.06125,1.26558 -1.06125,3.29692 0,4.5625 L 74.1739,552.0872 c 0.66114,0.79562 1.68429,1.27779 2.71875,1.28125 l 180.96875,0 c 1.03446,-0.003 2.05761,-0.48563 2.71875,-1.28125 l 39.21875,-46.28125 c 1.06125,-1.26558 1.06125,-3.29692 0,-4.5625 L 260.58015,454.9622 c -0.66114,-0.79562 -1.68429,-1.27779 -2.71875,-1.28125 z"
           id="path4045-4"
           inkscape:connector-curvature="0"
           sodipodi:nodetypes="ccccccccccccc" />
        <path
           style="fill:#ff0000;fill-opacity:1;stroke:#6e0f0f;stroke-width:1.51923132;stroke-linecap:round;stroke-linejoin:round;stroke-miterlimit:4;stroke-opacity:1;stroke-dasharray:none;marker-start:none"
           d="m 46.71386,499.24345 c 11.87889,14.01531 23.75777,28.03061 35.63666,42.04591 56.68434,0 113.36867,0 170.05301,0 11.87889,-14.0153 23.75777,-28.0306 35.63666,-42.04591 -11.87889,-14.01531 -23.75777,-28.03061 -35.63666,-42.04591 -56.68434,0 -113.36867,0 -170.05301,0 -11.87889,14.0153 -23.75777,28.0306 -35.63666,42.04591 z"
           id="path4045-2-9"
           inkscape:connector-curvature="0" />
        <path
           style="fill:url(#linearGradient4514);fill-opacity:1;stroke:#1aba1a;stroke-width:0;stroke-linecap:round;stroke-linejoin:round;stroke-miterlimit:4;stroke-opacity:1;stroke-dasharray:none;marker-start:none"
           d="m 47.01594,500.97311 c 11.87889,14.01531 23.75777,28.03061 35.63666,42.04591 56.68434,0 113.36867,0 170.05301,0 11.87889,-14.0153 23.75777,-28.0306 35.63666,-42.04591 -11.87889,-14.01531 -23.75777,-28.03061 -35.63666,-42.04591 -56.68434,0 -113.36867,0 -170.05301,0 -11.87889,14.0153 -23.75777,28.0306 -35.63666,42.04591 z"
           id="path4045-2-1-4"
           inkscape:connector-curvature="0" />
      </g>
      <text
         sodipodi:linespacing="125%"
         id="text4466"
         y="1045.6699"
         x="107.01018"
         style="font-size:40px;font-style:normal;font-variant:normal;font-weight:bold;font-stretch:normal;text-align:start;line-height:125%;letter-spacing:0px;word-spacing:0px;writing-mode:lr-tb;text-anchor:start;fill:#000000;fill-opacity:1;stroke:none;font-family:Franklin Gothic Medium;-inkscape-font-specification:'Franklin Gothic Medium, Bold'"
         xml:space="preserve"><tspan
           y="1045.6699"
           x="107.01018"
           id="tspan4468"
           sodipodi:role="line">Suspenso</tspan></text>
    </g>
    <g
       id="g4675"
       transform="matrix(1.2137193,0,0,1.2137193,81.981032,4.775753)">
      <g
         transform="matrix(1.3132311,0,0,1.3132311,-46.053818,-26.971379)"
         id="text4571"
         style="font-size:90.33724213px;font-style:normal;font-variant:normal;font-weight:bold;font-stretch:normal;text-align:start;line-height:125%;letter-spacing:0px;word-spacing:0px;writing-mode:lr-tb;text-anchor:start;fill:#4d4d4d;fill-opacity:1;stroke:none;font-family:Franklin Gothic Medium;-inkscape-font-specification:'Franklin Gothic Medium, Bold'">
        <path
           style="fill:#4d4d4d;fill-opacity:1;stroke:none"
           sodipodi:nodetypes="cccccccccccccc"
           inkscape:connector-curvature="0"
           id="path4580"
           d="m 278.18949,114.42711 -73.13703,0 0,-12.45682 43.77632,0 0,-29.516809 c -4.89071,5.069012 -10.26844,6.615268 -16.13322,8.638776 l 0,-14.097163 c 5.2601,-1.999603 8.48472,-3.379417 9.67387,-4.139446 1.18911,-0.759926 2.95121,-2.187985 5.2863,-4.284182 2.33505,-2.096085 4.06223,-4.147656 5.18155,-6.154721 l 12.65658,0 0,49.553545 12.69563,0 z" />
      </g>
      <path
         d="m 191.58942,100.97302 19.38763,-3.55818 c 2.58236,6.341 7.77835,9.51148 15.58795,9.51147 9.77098,1e-5 14.65648,-2.69572 14.65652,-8.087215 -4e-5,-1.567148 -0.699,-2.901874 -2.09692,-4.004178 -1.39804,-1.102252 -3.23706,-1.88173 -5.51716,-2.338441 L 219.80843,89.874662 C 203.10831,86.658214 194.75826,78.436306 194.7583,65.208919 c -4e-5,-7.32984 2.66205,-13.56157 7.98614,-18.695203 5.32414,-5.133483 13.18711,-7.70026 23.58895,-7.700346 17.37028,8.6e-5 28.0251,6.976795 31.96442,20.930151 l -18.70752,3.563106 c -1.7052,-5.874373 -5.96977,-8.811593 -12.79363,-8.811657 -8.22361,6.4e-5 -12.33538,2.411605 -12.33534,7.234627 -4e-5,3.242823 3.31829,5.542657 9.955,6.899507 l 16.77565,3.479326 c 13.97965,2.87484 20.96949,10.856906 20.96957,23.946222 -8e-5,9.166508 -3.54264,15.998658 -10.62768,20.496468 -7.08521,4.49782 -15.4328,6.74674 -25.04278,6.74674 -8.31227,0 -15.70708,-1.70024 -22.18437,-5.10072 -6.47732,-3.40045 -10.71641,-9.14183 -12.71729,-17.22412 z"
         style="font-size:40px;font-style:normal;font-variant:normal;font-weight:bold;font-stretch:normal;text-align:start;line-height:125%;letter-spacing:0px;word-spacing:0px;writing-mode:lr-tb;text-anchor:start;fill:#4d4d4d;fill-opacity:1;stroke:none;font-family:Franklin Gothic Medium;-inkscape-font-specification:'Franklin Gothic Medium, Bold'"
         id="path4543"
         inkscape:connector-curvature="0" />
      <path
         d="m 434.69855,123.29786 -21.94536,0 0,-50.203778 c -1.2e-4,-9.051439 -3.90655,-13.577182 -11.7193,-13.577247 -4.62607,6.5e-5 -8.35425,1.730687 -11.18461,5.191878 -2.83052,3.461312 -4.24577,8.807605 -4.24569,16.038896 l 0,42.550251 -22.17696,0 0,-50.203778 c -4e-5,-9.205857 -3.6223,-13.808807 -10.86673,-13.808873 -4.5406,6.6e-5 -8.40185,1.885105 -11.58377,5.655134 -3.18204,3.770142 -4.77302,9.039226 -4.77298,15.807266 l 0,42.550251 -21.63491,0 0,-81.236783 20.55068,0 0,16.617959 c 3.63372,-12.16277 11.74061,-18.244187 24.32076,-18.244272 12.37637,8.5e-5 20.00687,6.081502 22.8916,18.244272 5.24026,-12.16277 13.7677,-18.244187 25.5824,-18.244272 8.01973,8.5e-5 14.48881,2.514294 19.40734,7.542641 4.91823,5.0285 7.37742,11.209305 7.37753,18.542431 z"
         style="font-size:40px;font-style:normal;font-variant:normal;font-weight:bold;font-stretch:normal;text-align:start;line-height:125%;letter-spacing:0px;word-spacing:0px;writing-mode:lr-tb;text-anchor:start;fill:#4d4d4d;fill-opacity:1;stroke:none;font-family:Franklin Gothic Medium;-inkscape-font-specification:'Franklin Gothic Medium, Bold'"
         id="path4547"
         inkscape:connector-curvature="0" />
      <path
         id="path4539-0"
         d="m 154.62422,37.887825 c -11.4883,8.3e-5 -20.71308,4.01006 -27.71875,12.03125 -7.00571,8.021332 -10.53126,18.066232 -10.53125,30.125 -10e-6,9.782542 2.44074,18.614432 7.28125,26.468755 l -11.9375,0 c 1.41258,-3.16214 2.12496,-6.782059 2.125,-10.875005 -8e-5,-13.089316 -6.98911,-21.06266 -20.968753,-23.9375 l -16.78125,-3.5 c -6.63671,-1.35685 -9.93754,-3.632177 -9.9375,-6.875 -4e-5,-4.823022 4.12014,-7.249936 12.34375,-7.25 6.82387,6.4e-5 11.07606,2.938127 12.78125,8.8125 l 18.718753,-3.5625 c -3.93934,-13.953356 -14.598463,-20.937414 -31.968753,-20.9375 -10.40184,8.6e-5 -18.26962,2.585267 -23.59375,7.71875 -5.3241,5.133633 -8.00004,11.35766 -8,18.6875 -4e-5,13.227387 8.36239,21.439802 25.0625,24.65625 l 13.78125,2.625 c 2.28009,0.456711 4.13321,1.241498 5.53125,2.34375 1.39792,1.102304 2.09371,2.432852 2.09375,4 -4e-5,5.391495 -4.88526,8.093765 -14.65625,8.093755 -0.0106,0 -0.0207,1e-5 -0.0312,0 -7.7919,-0.009 -12.98365,-3.16762 -15.5625,-9.500005 l -19.375,3.562505 c 2.00087,8.08229 6.24143,13.8183 12.71875,17.21875 6.47728,3.40048 13.87523,5.09375 22.1875,5.09375 0.0105,0 0.0207,1e-5 0.0312,0 l 0,0.0312 74.500003,0 0,-0.0937 c 0.24123,0.004 0.47518,0.0312 0.71875,0.0312 11.16611,0 20.38207,-3.91715 27.65625,-11.75 7.27404,-7.83279 10.90617,-18.196096 10.90625,-31.062455 -8e-5,-12.489439 -3.49438,-22.631503 -10.5,-30.4375 -7.00576,-7.805854 -15.97731,-11.718667 -26.875,-11.71875 z m -2.375,15.21875 c 0.0204,-0.0021 0.042,0.0021 0.0625,0 l -13.03125,45.0625 c -2.26959,-4.491031 -3.40627,-10.449663 -3.40625,-17.875 -3e-5,-8.236556 1.53376,-14.864047 4.59375,-19.84375 2.67744,-4.357134 6.59657,-6.799057 11.78125,-7.34375 z m 15.34375,6.25 c 0.19691,0.28231 0.37796,0.57387 0.5625,0.875 2.95253,4.818201 4.43744,11.374526 4.4375,19.71875 -6e-5,18.465092 -6.1841,27.718765 -18.53125,27.718755 -0.14932,0 -0.28985,0.003 -0.4375,0 l 13.96875,-48.312505 z"
         style="font-size:40px;font-style:normal;font-variant:normal;font-weight:bold;font-stretch:normal;text-align:start;line-height:125%;letter-spacing:0px;word-spacing:0px;writing-mode:lr-tb;text-anchor:start;fill:#b3b3b3;fill-opacity:1;stroke:#ba671a;stroke-width:0;stroke-linecap:round;stroke-linejoin:round;stroke-miterlimit:4;stroke-opacity:1;stroke-dasharray:none;font-family:Franklin Gothic Medium;-inkscape-font-specification:'Franklin Gothic Medium, Bold'"
         inkscape:connector-curvature="0" />
    </g>
  </g>
</svg>
